<svg xmlns="http://www.w3.org/2000/svg" xml:space="preserve" width="720" height="720"
viewBox="0 0 720 720">
 <g>
  <path d="M133.45 120.61l-5.15 5.15 -9.38 -9.39 5.15 -5.14 0.84 0.85 -4.2 4.21 3.38 3.38 4.07 -4.07 0.85 0.85 -4.07 4.07 3.45 3.45 4.21 -4.21 0.85 0.85zm477.36 7.56l-12.05 6.72 -1.23 -1.23 5.62 -9.75 -9.75 5.62 -1.23 -1.23 6.72 -12.04 0.98 0.97 -5.89 10.47 10.43 -5.93 0.88 0.89 -5.93 10.42 10.47 -5.88 0.98 0.97zm-22.37 -3.6l-0.93 -0.94 2.61 -13.87 -8.24 8.24 -0.94 -0.93 9.38 -9.39 1.27 1.27 -2.49 13.09 7.79 -7.79 0.94 0.94 -9.39 9.38zm12.24 458.87l6.72 12.04 -1.23 1.23 -9.75 -5.61 5.62 9.74 -1.23 1.23 -12.05 -6.72 0.98 -0.97 10.47 5.88 -5.93 -10.42 0.89 -0.89 10.42 5.94 -5.89 -10.48 0.98 -0.97zm-5.51 19.13c0.7,0.7 1.08,1.55 1.14,2.53 0.06,1.14 -0.35,2.16 -1.26,3.06 -0.83,0.83 -1.78,1.26 -2.85,1.29 -1.07,0.04 -2.02,-0.36 -2.84,-1.18l0.94 -0.93c0.57,0.57 1.23,0.86 1.96,0.87 0.69,0.01 1.33,-0.28 1.92,-0.87 0.6,-0.61 0.88,-1.26 0.86,-1.98 -0.03,-0.72 -0.3,-1.34 -0.82,-1.87 -0.5,-0.5 -1.07,-0.74 -1.69,-0.74 -0.39,0 -0.81,0.1 -1.27,0.3 -0.93,0.46 -1.86,0.91 -2.8,1.36 -1.21,0.38 -2.27,0.11 -3.18,-0.8 -0.64,-0.64 -0.99,-1.39 -1.07,-2.26 -0.1,-1.08 0.29,-2.06 1.18,-2.95 0.82,-0.82 1.73,-1.2 2.74,-1.14 0.9,0.05 1.69,0.42 2.37,1.1l-0.94 0.94c-0.4,-0.41 -0.87,-0.65 -1.4,-0.72 -0.73,-0.11 -1.41,0.16 -2.03,0.78 -0.54,0.54 -0.78,1.11 -0.71,1.72 0.07,0.6 0.34,1.14 0.81,1.6 0.47,0.48 0.99,0.68 1.56,0.6 0.45,-0.06 1.09,-0.33 1.94,-0.8 1,-0.57 1.81,-0.9 2.43,-0.99 1.12,-0.17 2.12,0.19 3.01,1.08zm-472.5 4.97l-5.15 -5.15 9.38 -9.38 5.15 5.15 -0.85 0.85 -4.21 -4.21 -3.39 3.38 4.07 4.07 -0.85 0.85 -4.07 -4.07 -3.44 3.45 4.21 4.21 -0.85 0.85zm-3.8 -8.94c-0.7,0.7 -1.54,1.08 -2.53,1.14 -1.13,0.07 -2.15,-0.35 -3.06,-1.26 -0.82,-0.82 -1.25,-1.77 -1.29,-2.85 -0.03,-1.07 0.36,-2.02 1.18,-2.84l0.94 0.94c-0.58,0.58 -0.87,1.23 -0.88,1.97 0,0.68 0.29,1.32 0.88,1.91 0.6,0.6 1.26,0.89 1.98,0.86 0.71,-0.02 1.34,-0.3 1.86,-0.82 0.5,-0.5 0.75,-1.06 0.75,-1.69 0,-0.39 -0.1,-0.81 -0.31,-1.27 -0.45,-0.93 -0.91,-1.86 -1.35,-2.8 -0.38,-1.21 -0.12,-2.27 0.8,-3.18 0.63,-0.63 1.38,-0.99 2.25,-1.06 1.08,-0.11 2.07,0.29 2.96,1.17 0.82,0.82 1.2,1.74 1.14,2.74 -0.05,0.9 -0.42,1.69 -1.11,2.37l-0.93 -0.94c0.4,-0.4 0.64,-0.87 0.72,-1.4 0.1,-0.73 -0.16,-1.41 -0.79,-2.03 -0.54,-0.54 -1.11,-0.78 -1.71,-0.7 -0.61,0.07 -1.14,0.34 -1.61,0.8 -0.47,0.47 -0.67,0.99 -0.6,1.56 0.07,0.45 0.33,1.1 0.8,1.94 0.57,1.01 0.9,1.82 0.99,2.43 0.17,1.12 -0.19,2.12 -1.08,3.01zm7.55 -470.97l-0.93 0.94 -13.87 -2.61 8.24 8.24 -0.94 0.94 -9.38 -9.38 1.27 -1.27 13.08 2.48 -7.79 -7.78 0.94 -0.94 9.38 9.38zm588.58 222.11l-5.85 20.64 -2.71 0 -4.55 -16.9 -4.54 16.9 -2.71 0 -5.85 -20.64 2.15 0 5.04 17.99 4.94 -17.99 1.95 0 4.94 17.99 5.05 -17.99 2.14 0zm-690.63 20.82l-11.32 0.03 -0.05 -20.64 11.32 -0.03 0.01 1.87 -9.26 0.02 0.02 7.45 8.95 -0.02 0 1.87 -8.95 0.02 0.02 7.58 9.26 -0.02 0 1.87zm341.96 333.41c0,1.54 -0.51,2.89 -1.53,4.05 -1.17,1.32 -2.75,1.98 -4.74,1.98 -1.82,0 -3.34,-0.57 -4.56,-1.71 -1.22,-1.14 -1.83,-2.62 -1.83,-4.42l2.06 0c0,1.26 0.4,2.3 1.2,3.12 0.75,0.76 1.77,1.14 3.07,1.14 1.32,0 2.36,-0.41 3.12,-1.23 0.77,-0.82 1.15,-1.8 1.15,-2.95 -0.01,-1.1 -0.35,-1.99 -1.04,-2.68 -0.42,-0.43 -1,-0.78 -1.73,-1.06 -1.52,-0.52 -3.05,-1.05 -4.57,-1.59 -1.75,-0.91 -2.63,-2.37 -2.63,-4.37 0,-1.4 0.44,-2.62 1.31,-3.66 1.08,-1.3 2.59,-1.95 4.55,-1.95 1.8,0 3.22,0.58 4.26,1.75 0.94,1.04 1.4,2.31 1.4,3.82l-2.06 0c0,-0.89 -0.25,-1.67 -0.76,-2.34 -0.69,-0.91 -1.72,-1.36 -3.09,-1.36 -1.19,0 -2.08,0.37 -2.67,1.11 -0.58,0.75 -0.87,1.63 -0.87,2.65 0,1.04 0.35,1.83 1.06,2.37 0.56,0.43 1.56,0.85 3.01,1.26 1.73,0.48 2.99,1.01 3.77,1.58 1.41,1.04 2.12,2.54 2.12,4.49zm207.43 -557.72c-54.71,-54.71 -130.28,-88.54 -213.76,-88.54 -83.47,0 -159.05,33.83 -213.75,88.54 -54.71,54.7 -88.54,130.27 -88.54,213.75 0,83.48 33.83,159.05 88.54,213.76 54.7,54.7 130.28,88.53 213.75,88.53 83.48,0 159.05,-33.83 213.76,-88.53 54.7,-54.71 88.54,-130.28 88.54,-213.76 0,-83.48 -33.84,-159.05 -88.54,-213.75zm-213.76 -89.94c83.86,0 159.79,33.99 214.74,88.95 54.96,54.96 88.95,130.88 88.95,214.74 0,83.86 -33.99,159.78 -88.95,214.74 -54.96,54.96 -130.88,88.95 -214.74,88.95 -83.86,0 -159.79,-33.99 -214.74,-88.95 -54.96,-54.96 -88.95,-130.88 -88.95,-214.74 0,-83.86 33.99,-159.78 88.95,-214.74 54.96,-54.96 130.88,-88.95 214.74,-88.95zm-0.46 -3.81c0.17,0.13 0.36,0.19 0.59,0.19 0.22,0 0.42,-0.06 0.59,-0.19 0.17,-0.12 0.3,-0.29 0.39,-0.49 0.09,-0.21 0.16,-0.42 0.2,-0.65 0.05,-0.22 0.07,-0.44 0.07,-0.67 0,-0.24 -0.02,-0.46 -0.07,-0.68 -0.04,-0.23 -0.11,-0.44 -0.2,-0.65 -0.09,-0.2 -0.22,-0.37 -0.39,-0.49 -0.17,-0.13 -0.37,-0.19 -0.59,-0.19 -0.22,0 -0.42,0.06 -0.59,0.19 -0.17,0.12 -0.3,0.29 -0.39,0.49 -0.09,0.21 -0.15,0.42 -0.2,0.65 -0.04,0.22 -0.06,0.44 -0.06,0.67 0,0.23 0.02,0.46 0.06,0.68 0.04,0.22 0.11,0.44 0.2,0.65 0.09,0.2 0.22,0.37 0.39,0.49zm-196.37 71.28c0.21,-0.01 0.4,-0.09 0.58,-0.24 0.17,-0.14 0.28,-0.32 0.33,-0.53 0.05,-0.2 0.04,-0.41 -0.03,-0.63 -0.06,-0.21 -0.15,-0.42 -0.26,-0.62 -0.11,-0.2 -0.24,-0.38 -0.38,-0.56 -0.15,-0.18 -0.31,-0.33 -0.49,-0.48 -0.18,-0.14 -0.37,-0.26 -0.57,-0.36 -0.2,-0.1 -0.41,-0.14 -0.62,-0.12 -0.21,0.01 -0.4,0.09 -0.57,0.23 -0.18,0.15 -0.29,0.32 -0.33,0.53 -0.05,0.21 -0.04,0.42 0.02,0.63 0.07,0.21 0.15,0.42 0.26,0.62 0.11,0.2 0.24,0.38 0.39,0.56 0.15,0.18 0.31,0.33 0.49,0.48 0.18,0.14 0.37,0.26 0.57,0.36 0.2,0.1 0.4,0.14 0.61,0.13zm-3.09 -3.23c0.11,-0.27 0.29,-0.5 0.54,-0.71 0.25,-0.21 0.51,-0.35 0.79,-0.42 0.28,-0.08 0.54,-0.09 0.79,-0.04 0.24,0.05 0.48,0.14 0.73,0.28 0.25,0.13 0.47,0.27 0.65,0.43 0.19,0.16 0.36,0.34 0.52,0.53 0.16,0.18 0.3,0.38 0.43,0.59 0.12,0.21 0.23,0.45 0.32,0.72 0.09,0.26 0.14,0.52 0.14,0.77 0.01,0.24 -0.04,0.5 -0.16,0.77 -0.12,0.26 -0.3,0.5 -0.55,0.71 -0.24,0.2 -0.51,0.34 -0.79,0.41 -0.28,0.07 -0.54,0.09 -0.78,0.04 -0.25,-0.05 -0.49,-0.14 -0.74,-0.27 -0.25,-0.13 -0.47,-0.28 -0.65,-0.44 -0.19,-0.16 -0.36,-0.34 -0.52,-0.52 -0.15,-0.19 -0.29,-0.38 -0.42,-0.6 -0.13,-0.21 -0.24,-0.45 -0.33,-0.71 -0.09,-0.27 -0.13,-0.53 -0.14,-0.78 0,-0.25 0.05,-0.5 0.17,-0.76zm-1.57 3.85l0.69 -0.58 0.94 1.12 0.69 -0.59 0.54 0.64 -0.69 0.58 0.74 0.88 -0.69 0.59 -0.74 -0.88 -2.2 1.85 -0.54 -0.63 -0.23 -4.37 0.81 -0.67 0.22 4.36 1.4 -1.18 -0.94 -1.12zm96.62 -53.45c0.2,0.06 0.41,0.05 0.62,-0.03 0.21,-0.08 0.38,-0.2 0.49,-0.38 0.12,-0.18 0.18,-0.38 0.19,-0.61 0.02,-0.22 0.01,-0.44 -0.03,-0.67 -0.03,-0.22 -0.09,-0.44 -0.17,-0.66 -0.08,-0.21 -0.18,-0.42 -0.3,-0.61 -0.12,-0.19 -0.25,-0.37 -0.41,-0.53 -0.16,-0.17 -0.33,-0.27 -0.54,-0.34 -0.2,-0.05 -0.41,-0.04 -0.62,0.03 -0.21,0.08 -0.37,0.21 -0.49,0.39 -0.12,0.17 -0.18,0.37 -0.19,0.6 -0.01,0.22 0,0.44 0.04,0.67 0.03,0.22 0.09,0.44 0.17,0.66 0.08,0.21 0.18,0.42 0.3,0.61 0.12,0.19 0.25,0.37 0.4,0.53 0.16,0.17 0.34,0.28 0.54,0.34zm-1.81 -4.1c0.2,-0.2 0.45,-0.36 0.75,-0.48 0.3,-0.11 0.6,-0.15 0.89,-0.12 0.29,0.03 0.54,0.1 0.75,0.23 0.21,0.13 0.41,0.3 0.6,0.51 0.19,0.21 0.34,0.42 0.46,0.63 0.12,0.22 0.22,0.44 0.31,0.67 0.08,0.23 0.15,0.47 0.2,0.71 0.05,0.24 0.07,0.5 0.06,0.78 -0.01,0.28 -0.05,0.54 -0.13,0.77 -0.07,0.24 -0.21,0.46 -0.41,0.67 -0.2,0.21 -0.46,0.37 -0.76,0.48 -0.31,0.11 -0.6,0.15 -0.88,0.12 -0.29,-0.03 -0.54,-0.1 -0.75,-0.23 -0.22,-0.13 -0.42,-0.3 -0.61,-0.51 -0.19,-0.21 -0.34,-0.42 -0.46,-0.63 -0.12,-0.22 -0.22,-0.44 -0.31,-0.67 -0.08,-0.22 -0.15,-0.46 -0.2,-0.7 -0.04,-0.24 -0.06,-0.5 -0.06,-0.78 0.01,-0.28 0.05,-0.54 0.13,-0.78 0.08,-0.24 0.22,-0.46 0.42,-0.67zm-2.81 5.89l2.41 -0.89 0.29 0.78 -3.58 1.32 -0.29 -0.78 1.39 -2.6c0.25,-0.49 0.32,-0.89 0.2,-1.2 -0.09,-0.26 -0.25,-0.43 -0.48,-0.52 -0.22,-0.09 -0.46,-0.08 -0.73,0.02 -0.25,0.09 -0.44,0.24 -0.57,0.43 -0.13,0.2 -0.18,0.44 -0.15,0.72l-0.87 0.32c-0.09,-0.5 -0.02,-0.96 0.2,-1.36 0.22,-0.41 0.58,-0.7 1.06,-0.88 0.54,-0.2 1.02,-0.21 1.46,-0.04 0.44,0.17 0.75,0.49 0.93,0.98 0.18,0.5 0.11,1.08 -0.23,1.73l-1.04 1.97zm-156.53 133.09c0.19,-0.08 0.34,-0.22 0.46,-0.42 0.11,-0.2 0.15,-0.4 0.13,-0.61 -0.03,-0.21 -0.11,-0.4 -0.24,-0.58 -0.14,-0.19 -0.29,-0.35 -0.46,-0.5 -0.17,-0.15 -0.36,-0.28 -0.56,-0.39 -0.2,-0.12 -0.4,-0.21 -0.62,-0.28 -0.21,-0.07 -0.43,-0.12 -0.66,-0.15 -0.22,-0.02 -0.43,0.01 -0.62,0.1 -0.2,0.08 -0.35,0.22 -0.46,0.42 -0.11,0.19 -0.16,0.4 -0.13,0.61 0.02,0.21 0.11,0.4 0.24,0.58 0.14,0.18 0.29,0.34 0.46,0.49 0.17,0.15 0.36,0.28 0.56,0.39 0.2,0.12 0.4,0.21 0.62,0.28 0.21,0.07 0.43,0.12 0.65,0.15 0.23,0.02 0.43,0 0.63,-0.09zm-4.02 -1.97c0.02,-0.29 0.11,-0.57 0.27,-0.85 0.16,-0.28 0.36,-0.51 0.6,-0.67 0.24,-0.17 0.48,-0.26 0.72,-0.3 0.25,-0.04 0.51,-0.04 0.79,0 0.28,0.04 0.53,0.1 0.76,0.19 0.23,0.09 0.45,0.19 0.66,0.31 0.22,0.12 0.42,0.26 0.61,0.42 0.19,0.15 0.37,0.33 0.55,0.56 0.17,0.21 0.31,0.44 0.4,0.67 0.09,0.23 0.13,0.49 0.11,0.78 -0.02,0.29 -0.11,0.57 -0.27,0.85 -0.16,0.28 -0.36,0.51 -0.6,0.67 -0.24,0.16 -0.48,0.26 -0.72,0.3 -0.25,0.04 -0.51,0.04 -0.79,0 -0.28,-0.04 -0.54,-0.1 -0.77,-0.19 -0.23,-0.09 -0.45,-0.19 -0.66,-0.31 -0.21,-0.12 -0.41,-0.26 -0.6,-0.42 -0.19,-0.15 -0.38,-0.34 -0.55,-0.56 -0.18,-0.22 -0.31,-0.44 -0.4,-0.68 -0.09,-0.23 -0.13,-0.49 -0.11,-0.77zm1.33 6.49c0.27,-0.09 0.48,-0.28 0.64,-0.55 0.16,-0.28 0.21,-0.56 0.15,-0.84 -0.05,-0.28 -0.2,-0.49 -0.46,-0.64 -0.25,-0.14 -0.52,-0.17 -0.79,-0.08 -0.27,0.1 -0.49,0.28 -0.64,0.56 -0.16,0.28 -0.21,0.55 -0.15,0.83 0.06,0.28 0.22,0.49 0.47,0.64 0.26,0.14 0.52,0.17 0.78,0.08zm-1.78 -2.05c0.27,-0.47 0.65,-0.77 1.14,-0.93 0.49,-0.15 0.96,-0.1 1.42,0.17 0.44,0.25 0.72,0.62 0.85,1.12 0.12,0.51 0.04,1.01 -0.25,1.51 -0.33,0.58 -0.78,0.93 -1.36,1.04 -0.57,0.12 -1.26,-0.05 -2.07,-0.52 -0.34,-0.19 -0.63,-0.4 -0.89,-0.65 -0.25,-0.24 -0.46,-0.5 -0.62,-0.79 -0.17,-0.29 -0.24,-0.6 -0.24,-0.94 0,-0.34 0.09,-0.68 0.29,-1.01 0.22,-0.39 0.51,-0.67 0.88,-0.84 0.36,-0.16 0.77,-0.2 1.22,-0.12l-0.46 0.82c-0.39,-0.03 -0.69,0.15 -0.91,0.53 -0.19,0.33 -0.21,0.67 -0.07,1.03 0.15,0.36 0.44,0.69 0.88,0.97 -0.14,-0.45 -0.08,-0.92 0.19,-1.39zm-32.05 95.08c0.15,-0.14 0.25,-0.32 0.29,-0.55 0.04,-0.22 0.01,-0.42 -0.08,-0.61 -0.09,-0.19 -0.24,-0.35 -0.42,-0.48 -0.19,-0.12 -0.39,-0.23 -0.6,-0.31 -0.21,-0.08 -0.43,-0.14 -0.65,-0.18 -0.23,-0.05 -0.46,-0.07 -0.68,-0.06 -0.23,0 -0.45,0.03 -0.67,0.08 -0.22,0.05 -0.41,0.15 -0.56,0.3 -0.15,0.14 -0.25,0.33 -0.29,0.55 -0.04,0.22 -0.02,0.42 0.08,0.61 0.09,0.19 0.23,0.35 0.42,0.47 0.19,0.13 0.38,0.23 0.6,0.31 0.21,0.09 0.42,0.15 0.65,0.19 0.23,0.04 0.45,0.06 0.68,0.05 0.23,0 0.45,-0.02 0.67,-0.07 0.22,-0.05 0.4,-0.15 0.56,-0.3zm-4.45 -0.52c-0.08,-0.28 -0.09,-0.57 -0.03,-0.89 0.06,-0.32 0.17,-0.6 0.34,-0.83 0.17,-0.24 0.37,-0.41 0.59,-0.53 0.22,-0.11 0.46,-0.2 0.74,-0.25 0.27,-0.06 0.53,-0.08 0.78,-0.08 0.24,0.01 0.49,0.03 0.73,0.07 0.24,0.05 0.48,0.11 0.71,0.19 0.23,0.08 0.46,0.2 0.7,0.35 0.24,0.15 0.44,0.31 0.61,0.5 0.16,0.19 0.28,0.42 0.36,0.7 0.07,0.28 0.08,0.57 0.03,0.89 -0.06,0.32 -0.17,0.6 -0.35,0.83 -0.17,0.23 -0.36,0.4 -0.58,0.52 -0.22,0.12 -0.47,0.21 -0.74,0.26 -0.28,0.06 -0.54,0.08 -0.78,0.08 -0.25,-0.01 -0.49,-0.03 -0.73,-0.07 -0.24,-0.05 -0.48,-0.11 -0.71,-0.19 -0.23,-0.08 -0.47,-0.2 -0.71,-0.35 -0.23,-0.15 -0.43,-0.31 -0.6,-0.5 -0.16,-0.19 -0.28,-0.42 -0.36,-0.7zm3.82 5.04c0.06,-0.33 0.03,-0.62 -0.08,-0.85 -0.11,-0.24 -0.28,-0.38 -0.52,-0.42 -0.25,-0.04 -0.46,0.02 -0.65,0.2 -0.18,0.18 -0.3,0.44 -0.36,0.78 -0.06,0.34 -0.04,0.63 0.07,0.86 0.11,0.23 0.28,0.37 0.53,0.41 0.24,0.05 0.45,-0.03 0.64,-0.21 0.18,-0.18 0.31,-0.44 0.37,-0.77zm-3.01 -1.65c-0.22,-0.04 -0.42,0.03 -0.6,0.19 -0.17,0.17 -0.29,0.42 -0.34,0.74 -0.06,0.33 -0.04,0.6 0.06,0.82 0.1,0.22 0.27,0.35 0.5,0.39 0.24,0.04 0.44,-0.02 0.61,-0.19 0.17,-0.16 0.29,-0.41 0.35,-0.74 0.06,-0.33 0.04,-0.6 -0.06,-0.82 -0.1,-0.21 -0.27,-0.34 -0.52,-0.39zm3.63 0.25c0.24,0.42 0.3,0.94 0.2,1.55 -0.12,0.61 -0.36,1.07 -0.74,1.38 -0.38,0.32 -0.79,0.43 -1.24,0.35 -0.52,-0.09 -0.88,-0.41 -1.1,-0.95 -0.36,0.39 -0.8,0.54 -1.31,0.45 -0.43,-0.08 -0.77,-0.33 -1.01,-0.74 -0.24,-0.41 -0.3,-0.91 -0.19,-1.5 0.11,-0.6 0.34,-1.05 0.71,-1.35 0.37,-0.3 0.77,-0.41 1.21,-0.33 0.5,0.09 0.86,0.38 1.06,0.88 0.4,-0.43 0.85,-0.6 1.36,-0.51 0.46,0.09 0.8,0.34 1.05,0.77zm-1.09 101.91c0.09,-0.18 0.12,-0.39 0.09,-0.61 -0.04,-0.22 -0.14,-0.41 -0.29,-0.55 -0.16,-0.15 -0.34,-0.25 -0.56,-0.3 -0.22,-0.06 -0.44,-0.09 -0.67,-0.09 -0.22,-0.01 -0.45,0.01 -0.68,0.05 -0.22,0.04 -0.44,0.09 -0.65,0.17 -0.22,0.09 -0.41,0.19 -0.6,0.31 -0.19,0.13 -0.33,0.28 -0.43,0.47 -0.09,0.19 -0.12,0.4 -0.08,0.62 0.03,0.22 0.13,0.4 0.28,0.55 0.16,0.15 0.34,0.24 0.56,0.3 0.22,0.05 0.44,0.08 0.67,0.08 0.22,0.01 0.45,-0.01 0.67,-0.05 0.23,-0.04 0.45,-0.1 0.66,-0.18 0.22,-0.08 0.41,-0.18 0.6,-0.3 0.19,-0.12 0.33,-0.28 0.43,-0.47zm-4.36 1.04c-0.17,-0.24 -0.28,-0.51 -0.33,-0.83 -0.06,-0.32 -0.05,-0.62 0.04,-0.9 0.08,-0.27 0.2,-0.51 0.36,-0.69 0.17,-0.18 0.37,-0.35 0.61,-0.5 0.24,-0.14 0.48,-0.26 0.71,-0.34 0.23,-0.07 0.47,-0.13 0.71,-0.18 0.24,-0.04 0.49,-0.06 0.73,-0.06 0.25,-0.01 0.51,0.02 0.78,0.08 0.28,0.06 0.52,0.15 0.74,0.26 0.22,0.12 0.41,0.3 0.58,0.54 0.17,0.23 0.28,0.51 0.33,0.83 0.06,0.32 0.04,0.62 -0.04,0.89 -0.08,0.28 -0.2,0.51 -0.37,0.69 -0.16,0.19 -0.36,0.36 -0.6,0.5 -0.24,0.15 -0.48,0.26 -0.71,0.34 -0.24,0.08 -0.47,0.14 -0.71,0.18 -0.24,0.04 -0.48,0.07 -0.73,0.07 -0.25,0 -0.51,-0.02 -0.78,-0.08 -0.27,-0.06 -0.52,-0.15 -0.74,-0.27 -0.22,-0.12 -0.41,-0.3 -0.58,-0.53zm5.25 4.15c0.09,-0.19 0.12,-0.4 0.08,-0.62 -0.03,-0.22 -0.13,-0.4 -0.28,-0.55 -0.16,-0.15 -0.34,-0.25 -0.56,-0.3 -0.22,-0.06 -0.44,-0.09 -0.67,-0.09 -0.22,-0.01 -0.45,0.01 -0.68,0.05 -0.22,0.04 -0.44,0.1 -0.65,0.18 -0.22,0.08 -0.42,0.18 -0.6,0.3 -0.19,0.13 -0.33,0.29 -0.43,0.47 -0.09,0.19 -0.12,0.4 -0.08,0.62 0.03,0.22 0.13,0.41 0.28,0.55 0.16,0.15 0.34,0.25 0.56,0.3 0.22,0.05 0.44,0.08 0.66,0.09 0.23,0 0.46,-0.02 0.69,-0.05 0.22,-0.04 0.44,-0.1 0.65,-0.18 0.21,-0.09 0.41,-0.19 0.6,-0.31 0.19,-0.12 0.33,-0.27 0.43,-0.46zm-4.36 1.03c-0.17,-0.23 -0.28,-0.51 -0.33,-0.83 -0.06,-0.32 -0.05,-0.62 0.03,-0.89 0.08,-0.28 0.21,-0.51 0.37,-0.7 0.17,-0.18 0.37,-0.35 0.61,-0.5 0.24,-0.14 0.48,-0.25 0.71,-0.33 0.23,-0.08 0.47,-0.14 0.71,-0.18 0.24,-0.05 0.49,-0.07 0.73,-0.07 0.25,0 0.51,0.02 0.78,0.08 0.27,0.06 0.52,0.15 0.74,0.27 0.22,0.12 0.41,0.29 0.58,0.53 0.17,0.23 0.28,0.51 0.33,0.83 0.06,0.32 0.04,0.62 -0.04,0.89 -0.08,0.28 -0.2,0.51 -0.37,0.7 -0.16,0.18 -0.36,0.35 -0.6,0.5 -0.24,0.14 -0.48,0.26 -0.71,0.34 -0.24,0.07 -0.47,0.13 -0.71,0.18 -0.24,0.04 -0.48,0.06 -0.73,0.06 -0.24,0.01 -0.51,-0.02 -0.78,-0.08 -0.27,-0.06 -0.52,-0.15 -0.74,-0.27 -0.22,-0.12 -0.41,-0.3 -0.58,-0.53zm5.89 2.52l-4.34 0.75 1.22 0.95 -1.07 0.19 -1.19 -0.93 -0.15 -0.93 5.38 -0.92 0.15 0.89zm33.06 93.3c0.03,-0.21 -0.01,-0.41 -0.13,-0.61 -0.11,-0.19 -0.26,-0.33 -0.46,-0.42 -0.19,-0.08 -0.4,-0.11 -0.62,-0.09 -0.23,0.03 -0.45,0.08 -0.66,0.15 -0.22,0.07 -0.42,0.16 -0.62,0.28 -0.2,0.12 -0.39,0.25 -0.56,0.4 -0.17,0.14 -0.32,0.31 -0.45,0.49 -0.14,0.18 -0.21,0.38 -0.24,0.59 -0.02,0.21 0.02,0.41 0.13,0.61 0.12,0.19 0.27,0.33 0.46,0.41 0.2,0.09 0.4,0.12 0.63,0.09 0.22,-0.03 0.44,-0.07 0.65,-0.15 0.21,-0.07 0.42,-0.16 0.62,-0.28 0.2,-0.11 0.39,-0.25 0.56,-0.39 0.17,-0.15 0.32,-0.32 0.46,-0.5 0.13,-0.17 0.21,-0.37 0.23,-0.58zm-3.73 2.47c-0.24,-0.16 -0.44,-0.38 -0.6,-0.66 -0.16,-0.28 -0.25,-0.57 -0.27,-0.85 -0.02,-0.29 0.01,-0.55 0.11,-0.78 0.09,-0.23 0.22,-0.46 0.4,-0.68 0.17,-0.22 0.35,-0.41 0.54,-0.56 0.19,-0.15 0.39,-0.29 0.61,-0.41 0.21,-0.13 0.43,-0.23 0.66,-0.32 0.23,-0.09 0.48,-0.15 0.76,-0.19 0.28,-0.04 0.54,-0.04 0.78,0 0.25,0.03 0.49,0.13 0.73,0.29 0.24,0.17 0.44,0.39 0.6,0.67 0.17,0.28 0.26,0.56 0.27,0.85 0.02,0.29 -0.01,0.54 -0.1,0.78 -0.09,0.23 -0.23,0.46 -0.4,0.68 -0.17,0.22 -0.36,0.4 -0.55,0.56 -0.19,0.15 -0.39,0.29 -0.6,0.41 -0.21,0.12 -0.43,0.23 -0.66,0.32 -0.23,0.08 -0.49,0.15 -0.76,0.19 -0.28,0.04 -0.55,0.04 -0.79,0 -0.25,-0.04 -0.49,-0.14 -0.73,-0.3zm6.28 1.78l-1.28 -2.22 0.72 -0.42 1.9 3.31 -0.72 0.42 -2.8 -0.93c-0.52,-0.17 -0.93,-0.17 -1.22,-0.01 -0.24,0.14 -0.38,0.32 -0.43,0.56 -0.05,0.23 0,0.47 0.14,0.72 0.13,0.23 0.31,0.4 0.52,0.49 0.22,0.1 0.46,0.1 0.73,0.02l0.47 0.82c-0.49,0.16 -0.95,0.17 -1.38,0.02 -0.43,-0.15 -0.78,-0.45 -1.04,-0.9 -0.29,-0.49 -0.38,-0.97 -0.29,-1.43 0.1,-0.46 0.37,-0.81 0.81,-1.07 0.47,-0.27 1.05,-0.29 1.75,-0.08l2.12 0.7 0 0zm2.45 2.61l-3.82 2.19 1.48 0.48 -0.94 0.54 -1.43 -0.45 -0.47 -0.82 4.73 -2.73 0.45 0.79zm62.08 75.32c-0.05,-0.21 -0.16,-0.38 -0.33,-0.53 -0.17,-0.14 -0.36,-0.22 -0.57,-0.24 -0.21,-0.01 -0.42,0.03 -0.62,0.13 -0.2,0.1 -0.39,0.22 -0.57,0.36 -0.18,0.14 -0.34,0.3 -0.49,0.48 -0.15,0.18 -0.28,0.36 -0.39,0.56 -0.11,0.2 -0.19,0.41 -0.26,0.62 -0.06,0.22 -0.07,0.43 -0.02,0.63 0.05,0.21 0.16,0.38 0.33,0.53 0.17,0.14 0.36,0.22 0.58,0.24 0.21,0.01 0.41,-0.03 0.61,-0.13 0.2,-0.1 0.39,-0.22 0.57,-0.37 0.17,-0.14 0.34,-0.3 0.48,-0.47 0.15,-0.18 0.28,-0.37 0.39,-0.56 0.11,-0.2 0.2,-0.41 0.27,-0.62 0.06,-0.21 0.07,-0.42 0.02,-0.63zm-2.67 3.59c-0.28,-0.07 -0.54,-0.21 -0.79,-0.42 -0.24,-0.2 -0.43,-0.44 -0.54,-0.71 -0.12,-0.26 -0.18,-0.52 -0.17,-0.76 0.01,-0.25 0.06,-0.51 0.15,-0.78 0.09,-0.26 0.19,-0.5 0.32,-0.71 0.13,-0.21 0.27,-0.41 0.43,-0.6 0.16,-0.18 0.33,-0.36 0.51,-0.52 0.19,-0.16 0.41,-0.3 0.66,-0.43 0.24,-0.14 0.49,-0.23 0.73,-0.28 0.24,-0.05 0.51,-0.04 0.79,0.04 0.28,0.07 0.54,0.21 0.79,0.42 0.24,0.21 0.43,0.44 0.54,0.7 0.12,0.27 0.17,0.52 0.17,0.77 -0.01,0.25 -0.06,0.51 -0.15,0.78 -0.08,0.26 -0.19,0.5 -0.32,0.71 -0.13,0.21 -0.27,0.41 -0.43,0.6 -0.15,0.18 -0.32,0.36 -0.51,0.52 -0.19,0.16 -0.41,0.31 -0.65,0.44 -0.25,0.13 -0.5,0.22 -0.74,0.27 -0.25,0.04 -0.51,0.03 -0.79,-0.04zm4.07 0.9l-0.7 -0.58 0.95 -1.12 -0.69 -0.58 0.53 -0.64 0.7 0.59 0.74 -0.88 0.69 0.58 -0.74 0.88 2.2 1.86 -0.54 0.64 -4.26 0.95 -0.81 -0.68 4.27 -0.95 -1.4 -1.18 -0.94 1.11zm5.87 0.45l-2.85 3.37 1.55 -0.06 -0.7 0.83 -1.5 0.06 -0.72 -0.61 3.53 -4.17 0.69 0.58zm83.72 49.55c-0.11,-0.18 -0.27,-0.31 -0.49,-0.38 -0.21,-0.08 -0.41,-0.09 -0.62,-0.03 -0.2,0.06 -0.38,0.17 -0.54,0.33 -0.15,0.16 -0.29,0.34 -0.41,0.53 -0.12,0.19 -0.22,0.4 -0.3,0.61 -0.08,0.22 -0.13,0.44 -0.17,0.66 -0.04,0.23 -0.05,0.45 -0.03,0.68 0.01,0.22 0.07,0.42 0.19,0.6 0.12,0.18 0.28,0.3 0.49,0.38 0.21,0.08 0.42,0.09 0.62,0.03 0.2,-0.06 0.38,-0.17 0.54,-0.33 0.15,-0.17 0.29,-0.34 0.4,-0.54 0.12,-0.19 0.22,-0.39 0.3,-0.61 0.08,-0.22 0.14,-0.44 0.18,-0.66 0.03,-0.22 0.04,-0.45 0.04,-0.67 -0.02,-0.22 -0.08,-0.42 -0.2,-0.6zm-1.29 4.29c-0.28,0.02 -0.58,-0.02 -0.88,-0.13 -0.3,-0.11 -0.55,-0.27 -0.75,-0.48 -0.21,-0.21 -0.34,-0.43 -0.42,-0.67 -0.08,-0.23 -0.12,-0.49 -0.13,-0.77 0,-0.28 0.02,-0.54 0.07,-0.78 0.04,-0.24 0.11,-0.48 0.19,-0.71 0.09,-0.23 0.19,-0.45 0.31,-0.67 0.12,-0.21 0.28,-0.42 0.47,-0.63 0.18,-0.21 0.38,-0.38 0.6,-0.5 0.21,-0.13 0.46,-0.21 0.75,-0.24 0.28,-0.03 0.58,0.01 0.88,0.13 0.31,0.11 0.56,0.27 0.76,0.48 0.19,0.2 0.33,0.43 0.41,0.66 0.08,0.24 0.12,0.5 0.13,0.78 0.01,0.28 -0.01,0.54 -0.06,0.78 -0.05,0.25 -0.12,0.48 -0.2,0.71 -0.09,0.22 -0.19,0.44 -0.31,0.66 -0.12,0.22 -0.27,0.43 -0.46,0.64 -0.19,0.2 -0.39,0.37 -0.61,0.5 -0.21,0.13 -0.46,0.21 -0.75,0.24zm6.19 -2.38c-0.13,-0.25 -0.35,-0.43 -0.65,-0.54 -0.3,-0.11 -0.58,-0.12 -0.85,-0.02 -0.27,0.1 -0.45,0.29 -0.55,0.56 -0.1,0.28 -0.09,0.55 0.05,0.8 0.14,0.25 0.36,0.43 0.65,0.54 0.3,0.11 0.58,0.12 0.85,0.01 0.26,-0.1 0.45,-0.29 0.55,-0.57 0.1,-0.27 0.08,-0.53 -0.05,-0.78zm-1.73 2.09c-0.5,-0.19 -0.87,-0.51 -1.1,-0.97 -0.23,-0.46 -0.25,-0.93 -0.07,-1.43 0.18,-0.47 0.5,-0.81 0.97,-1.02 0.48,-0.2 0.99,-0.2 1.53,0 0.62,0.23 1.04,0.62 1.25,1.17 0.21,0.54 0.15,1.25 -0.17,2.13 -0.14,0.36 -0.3,0.69 -0.5,0.98 -0.19,0.29 -0.42,0.54 -0.68,0.75 -0.26,0.2 -0.55,0.33 -0.89,0.39 -0.33,0.05 -0.68,0.01 -1.04,-0.12 -0.42,-0.16 -0.75,-0.4 -0.97,-0.73 -0.22,-0.33 -0.33,-0.73 -0.32,-1.2l0.88 0.33c0.04,0.39 0.26,0.66 0.67,0.81 0.36,0.13 0.7,0.1 1.03,-0.1 0.34,-0.21 0.61,-0.55 0.82,-1.02 -0.43,0.21 -0.9,0.22 -1.41,0.03zm5.38 -1.81l-1.54 4.13 1.45 -0.58 -0.38 1.02 -1.39 0.57 -0.89 -0.33 1.9 -5.13 0.85 0.32zm102.53 17.99c-0.34,0 -0.62,0.08 -0.83,0.23 -0.21,0.15 -0.32,0.35 -0.32,0.59 0,0.25 0.11,0.45 0.32,0.6 0.2,0.15 0.48,0.22 0.83,0.22 0.34,0 0.62,-0.07 0.83,-0.22 0.21,-0.15 0.31,-0.35 0.31,-0.6 0,-0.24 -0.11,-0.44 -0.32,-0.59 -0.21,-0.15 -0.49,-0.23 -0.82,-0.23zm-1.09 3.26c0,0.23 0.1,0.41 0.3,0.55 0.19,0.14 0.46,0.21 0.79,0.21 0.33,0 0.59,-0.07 0.79,-0.21 0.19,-0.14 0.29,-0.32 0.29,-0.55 0,-0.25 -0.1,-0.44 -0.29,-0.58 -0.19,-0.14 -0.46,-0.21 -0.79,-0.21 -0.34,0 -0.6,0.07 -0.8,0.21 -0.19,0.14 -0.29,0.33 -0.29,0.58zm-0.41 -3.61c0.38,-0.32 0.88,-0.48 1.5,-0.48 0.62,0 1.11,0.16 1.49,0.48 0.38,0.31 0.56,0.7 0.56,1.16 0,0.52 -0.24,0.94 -0.74,1.25 0.45,0.29 0.68,0.69 0.68,1.2 0,0.45 -0.18,0.82 -0.55,1.13 -0.36,0.31 -0.84,0.46 -1.44,0.46 -0.61,0 -1.09,-0.15 -1.45,-0.46 -0.36,-0.31 -0.55,-0.68 -0.55,-1.13 0,-0.51 0.23,-0.91 0.68,-1.2 -0.49,-0.31 -0.74,-0.73 -0.74,-1.25 0,-0.46 0.19,-0.85 0.56,-1.16zm5.75 -0.37l0 4.41 1.15 -1.04 0 1.08 -1.11 1.02 -0.95 -0.01 0.01 -5.46 0.9 0zm-8.81 0.91c-0.17,-0.12 -0.37,-0.19 -0.59,-0.19 -0.23,0 -0.43,0.07 -0.6,0.19 -0.17,0.13 -0.3,0.3 -0.39,0.5 -0.09,0.21 -0.16,0.42 -0.2,0.64 -0.04,0.22 -0.07,0.45 -0.07,0.68 0,0.23 0.03,0.46 0.07,0.68 0.04,0.22 0.11,0.44 0.2,0.64 0.09,0.21 0.22,0.37 0.39,0.5 0.17,0.13 0.37,0.19 0.59,0.19 0.23,0 0.43,-0.06 0.6,-0.19 0.17,-0.12 0.3,-0.29 0.38,-0.5 0.09,-0.2 0.16,-0.42 0.2,-0.64 0.05,-0.22 0.07,-0.45 0.07,-0.68 0,-0.23 -0.02,-0.45 -0.07,-0.68 -0.04,-0.22 -0.11,-0.43 -0.2,-0.64 -0.08,-0.2 -0.21,-0.37 -0.38,-0.5zm0.28 4.47c-0.26,0.13 -0.55,0.19 -0.88,0.19 -0.32,0 -0.61,-0.06 -0.87,-0.19 -0.26,-0.13 -0.47,-0.29 -0.62,-0.48 -0.16,-0.19 -0.29,-0.42 -0.39,-0.68 -0.1,-0.26 -0.18,-0.52 -0.21,-0.76 -0.04,-0.24 -0.06,-0.48 -0.06,-0.73 0,-0.25 0.02,-0.49 0.06,-0.73 0.04,-0.24 0.11,-0.49 0.21,-0.75 0.11,-0.26 0.23,-0.49 0.39,-0.69 0.15,-0.19 0.36,-0.35 0.62,-0.48 0.26,-0.13 0.55,-0.19 0.88,-0.19 0.32,0 0.61,0.07 0.87,0.19 0.26,0.13 0.46,0.29 0.62,0.48 0.16,0.2 0.29,0.43 0.39,0.69 0.1,0.26 0.17,0.51 0.21,0.75 0.04,0.25 0.06,0.49 0.06,0.73 0,0.24 -0.02,0.49 -0.06,0.73 -0.04,0.24 -0.11,0.5 -0.21,0.76 -0.1,0.26 -0.24,0.49 -0.39,0.68 -0.16,0.2 -0.37,0.36 -0.62,0.48zm102.7 -20.93c-0.2,-0.06 -0.41,-0.06 -0.62,0.02 -0.21,0.07 -0.38,0.2 -0.49,0.38 -0.12,0.17 -0.19,0.37 -0.2,0.6 -0.02,0.22 -0.01,0.44 0.02,0.67 0.03,0.22 0.09,0.44 0.17,0.66 0.08,0.22 0.17,0.42 0.29,0.62 0.12,0.19 0.25,0.37 0.4,0.53 0.16,0.17 0.34,0.28 0.54,0.34 0.2,0.06 0.41,0.06 0.62,-0.02 0.21,-0.08 0.38,-0.2 0.5,-0.38 0.11,-0.17 0.18,-0.37 0.19,-0.6 0.02,-0.22 0.01,-0.44 -0.03,-0.67 -0.03,-0.22 -0.09,-0.44 -0.16,-0.66 -0.08,-0.22 -0.18,-0.42 -0.29,-0.62 -0.12,-0.19 -0.25,-0.37 -0.41,-0.53 -0.15,-0.17 -0.33,-0.28 -0.53,-0.34zm1.77 4.11c-0.2,0.21 -0.45,0.36 -0.76,0.47 -0.3,0.11 -0.6,0.15 -0.89,0.12 -0.29,-0.03 -0.53,-0.11 -0.74,-0.24 -0.21,-0.14 -0.41,-0.31 -0.6,-0.52 -0.18,-0.21 -0.34,-0.42 -0.45,-0.63 -0.12,-0.22 -0.22,-0.44 -0.3,-0.67 -0.09,-0.24 -0.15,-0.47 -0.2,-0.71 -0.04,-0.24 -0.06,-0.5 -0.05,-0.78 0.01,-0.28 0.06,-0.54 0.14,-0.78 0.07,-0.23 0.22,-0.45 0.42,-0.66 0.2,-0.21 0.46,-0.37 0.76,-0.47 0.31,-0.11 0.6,-0.15 0.89,-0.12 0.28,0.03 0.53,0.12 0.74,0.25 0.22,0.13 0.41,0.3 0.6,0.51 0.19,0.21 0.34,0.42 0.46,0.64 0.12,0.22 0.21,0.44 0.3,0.67 0.08,0.22 0.14,0.46 0.19,0.7 0.04,0.24 0.06,0.5 0.05,0.78 -0.01,0.28 -0.06,0.54 -0.14,0.78 -0.08,0.24 -0.22,0.46 -0.42,0.66zm3.18 -5.88c-0.2,-0.06 -0.41,-0.06 -0.62,0.02 -0.21,0.07 -0.37,0.2 -0.49,0.38 -0.12,0.17 -0.19,0.37 -0.2,0.6 -0.02,0.22 -0.01,0.45 0.02,0.67 0.04,0.22 0.09,0.44 0.17,0.66 0.08,0.22 0.17,0.42 0.29,0.62 0.12,0.19 0.25,0.37 0.41,0.53 0.15,0.17 0.33,0.28 0.53,0.34 0.21,0.06 0.41,0.06 0.62,-0.02 0.22,-0.07 0.38,-0.2 0.5,-0.38 0.12,-0.17 0.18,-0.37 0.19,-0.6 0.02,-0.22 0.01,-0.44 -0.03,-0.67 -0.03,-0.22 -0.08,-0.44 -0.16,-0.66 -0.08,-0.21 -0.18,-0.42 -0.29,-0.61 -0.12,-0.2 -0.25,-0.38 -0.4,-0.54 -0.16,-0.17 -0.33,-0.28 -0.54,-0.34zm1.77 4.11c-0.2,0.21 -0.45,0.36 -0.76,0.47 -0.3,0.11 -0.6,0.15 -0.88,0.12 -0.29,-0.03 -0.54,-0.11 -0.75,-0.24 -0.21,-0.14 -0.41,-0.31 -0.6,-0.52 -0.18,-0.21 -0.33,-0.42 -0.45,-0.63 -0.12,-0.22 -0.22,-0.44 -0.3,-0.67 -0.08,-0.24 -0.15,-0.47 -0.19,-0.71 -0.05,-0.24 -0.07,-0.5 -0.06,-0.78 0.02,-0.29 0.06,-0.54 0.14,-0.78 0.08,-0.23 0.22,-0.45 0.42,-0.66 0.2,-0.21 0.46,-0.36 0.76,-0.47 0.31,-0.11 0.6,-0.15 0.89,-0.12 0.28,0.03 0.53,0.11 0.74,0.25 0.22,0.13 0.42,0.3 0.6,0.51 0.19,0.21 0.34,0.42 0.46,0.64 0.12,0.21 0.22,0.44 0.3,0.66 0.08,0.23 0.14,0.47 0.19,0.71 0.04,0.24 0.06,0.5 0.05,0.78 -0.01,0.29 -0.05,0.54 -0.14,0.78 -0.08,0.24 -0.22,0.46 -0.42,0.66zm2.87 -5.86l-2.42 0.87 -0.28 -0.79 3.6 -1.28 0.28 0.78 -1.42 2.6c-0.25,0.48 -0.33,0.88 -0.22,1.19 0.1,0.26 0.25,0.44 0.48,0.52 0.22,0.09 0.46,0.09 0.73,0 0.25,-0.09 0.45,-0.24 0.58,-0.43 0.13,-0.2 0.18,-0.44 0.15,-0.72l0.88 -0.31c0.08,0.51 0.01,0.96 -0.22,1.36 -0.22,0.4 -0.58,0.69 -1.07,0.86 -0.54,0.2 -1.02,0.21 -1.46,0.03 -0.43,-0.17 -0.74,-0.5 -0.91,-0.99 -0.18,-0.5 -0.1,-1.08 0.24,-1.73l1.06 -1.96zm84.5 -47.73c-0.21,0.01 -0.41,0.09 -0.58,0.23 -0.17,0.15 -0.28,0.32 -0.33,0.53 -0.05,0.2 -0.05,0.42 0.01,0.63 0.07,0.22 0.15,0.42 0.26,0.62 0.11,0.2 0.23,0.39 0.38,0.57 0.15,0.18 0.31,0.33 0.49,0.48 0.17,0.14 0.36,0.26 0.56,0.36 0.2,0.1 0.41,0.15 0.62,0.14 0.21,-0.02 0.4,-0.09 0.58,-0.24 0.17,-0.14 0.28,-0.32 0.33,-0.52 0.05,-0.21 0.05,-0.42 -0.02,-0.63 -0.06,-0.22 -0.15,-0.42 -0.26,-0.62 -0.1,-0.2 -0.23,-0.39 -0.38,-0.57 -0.15,-0.17 -0.31,-0.33 -0.49,-0.47 -0.17,-0.15 -0.36,-0.27 -0.56,-0.37 -0.2,-0.11 -0.4,-0.15 -0.61,-0.14zm3.07 3.26c-0.12,0.26 -0.3,0.49 -0.55,0.7 -0.25,0.21 -0.52,0.35 -0.8,0.42 -0.28,0.07 -0.54,0.07 -0.78,0.02 -0.24,-0.05 -0.49,-0.14 -0.74,-0.28 -0.24,-0.13 -0.46,-0.28 -0.64,-0.44 -0.19,-0.16 -0.36,-0.33 -0.51,-0.52 -0.16,-0.19 -0.3,-0.4 -0.43,-0.6 -0.12,-0.21 -0.23,-0.45 -0.31,-0.72 -0.09,-0.27 -0.14,-0.52 -0.14,-0.77 -0.01,-0.25 0.05,-0.51 0.17,-0.77 0.12,-0.26 0.3,-0.5 0.55,-0.71 0.25,-0.2 0.51,-0.34 0.79,-0.41 0.28,-0.06 0.54,-0.07 0.79,-0.02 0.24,0.05 0.49,0.14 0.73,0.27 0.25,0.14 0.47,0.28 0.65,0.45 0.19,0.16 0.36,0.33 0.51,0.52 0.16,0.19 0.3,0.39 0.42,0.6 0.13,0.21 0.24,0.45 0.32,0.72 0.09,0.26 0.13,0.52 0.14,0.77 0,0.25 -0.05,0.51 -0.17,0.77zm0.69 -6.49l-1.98 1.64 -0.53 -0.64 2.94 -2.44 0.53 0.64 -0.44 2.92c-0.08,0.55 -0.01,0.95 0.2,1.2 0.18,0.21 0.39,0.32 0.62,0.33 0.24,0.01 0.47,-0.08 0.69,-0.26 0.21,-0.17 0.34,-0.37 0.4,-0.6 0.05,-0.23 0.02,-0.47 -0.11,-0.72l0.72 -0.6c0.25,0.45 0.34,0.9 0.26,1.36 -0.07,0.45 -0.31,0.84 -0.71,1.17 -0.44,0.37 -0.89,0.55 -1.36,0.53 -0.46,-0.01 -0.86,-0.22 -1.19,-0.62 -0.35,-0.41 -0.47,-0.98 -0.37,-1.7l0.33 -2.21zm3.65 -3.04l-1.97 1.64 -0.53 -0.64 2.93 -2.44 0.54 0.64 -0.44 2.92c-0.08,0.55 -0.01,0.95 0.2,1.2 0.18,0.22 0.38,0.33 0.62,0.33 0.24,0.01 0.47,-0.08 0.69,-0.26 0.2,-0.17 0.34,-0.37 0.39,-0.6 0.06,-0.23 0.03,-0.47 -0.1,-0.72l0.72 -0.6c0.25,0.45 0.34,0.9 0.26,1.36 -0.07,0.45 -0.31,0.84 -0.71,1.18 -0.44,0.36 -0.89,0.54 -1.36,0.52 -0.47,-0.01 -0.86,-0.22 -1.19,-0.61 -0.35,-0.42 -0.47,-0.99 -0.37,-1.71l0.32 -2.21zm62.39 -74.56c-0.19,0.08 -0.35,0.22 -0.46,0.42 -0.11,0.19 -0.16,0.39 -0.14,0.6 0.03,0.22 0.1,0.41 0.24,0.59 0.13,0.19 0.28,0.35 0.45,0.5 0.17,0.15 0.35,0.29 0.55,0.4 0.2,0.12 0.41,0.21 0.62,0.29 0.21,0.07 0.43,0.12 0.66,0.15 0.22,0.02 0.43,0 0.62,-0.09 0.2,-0.08 0.35,-0.22 0.47,-0.41 0.11,-0.2 0.16,-0.4 0.13,-0.61 -0.02,-0.21 -0.1,-0.41 -0.23,-0.59 -0.14,-0.18 -0.29,-0.34 -0.46,-0.49 -0.17,-0.15 -0.35,-0.28 -0.55,-0.4 -0.2,-0.12 -0.4,-0.21 -0.62,-0.29 -0.21,-0.07 -0.43,-0.12 -0.65,-0.15 -0.22,-0.03 -0.43,0 -0.63,0.08zm4 2.02c-0.02,0.28 -0.11,0.57 -0.28,0.85 -0.16,0.28 -0.36,0.49 -0.6,0.66 -0.24,0.16 -0.49,0.26 -0.73,0.29 -0.25,0.03 -0.51,0.03 -0.79,-0.01 -0.27,-0.04 -0.53,-0.11 -0.76,-0.2 -0.22,-0.09 -0.44,-0.19 -0.66,-0.32 -0.21,-0.12 -0.41,-0.26 -0.6,-0.42 -0.19,-0.15 -0.37,-0.34 -0.54,-0.56 -0.17,-0.22 -0.31,-0.45 -0.4,-0.68 -0.09,-0.23 -0.12,-0.49 -0.1,-0.78 0.03,-0.29 0.12,-0.57 0.28,-0.85 0.17,-0.28 0.37,-0.5 0.61,-0.66 0.24,-0.16 0.48,-0.25 0.73,-0.29 0.24,-0.04 0.5,-0.04 0.78,0 0.28,0.05 0.53,0.11 0.76,0.2 0.23,0.09 0.45,0.2 0.66,0.32 0.21,0.12 0.41,0.26 0.6,0.42 0.19,0.16 0.37,0.34 0.55,0.56 0.17,0.23 0.3,0.45 0.39,0.69 0.09,0.23 0.12,0.49 0.1,0.78zm0.19 -4.16l-0.45 0.78 -1.27 -0.74 -0.46 0.78 -0.71 -0.42 0.45 -0.78 -0.99 -0.58 0.46 -0.78 0.99 0.58 1.46 -2.49 0.71 0.42 1.67 4.04 -0.53 0.91 -1.67 -4.04 -0.92 1.58 1.26 0.74zm0.8 -6.54l-1.3 2.21 -0.72 -0.42 1.93 -3.29 0.72 0.42 0.58 2.89c0.12,0.54 0.32,0.89 0.6,1.06 0.24,0.14 0.47,0.17 0.7,0.1 0.23,-0.08 0.41,-0.23 0.56,-0.48 0.13,-0.23 0.19,-0.47 0.16,-0.7 -0.02,-0.23 -0.14,-0.45 -0.34,-0.64l0.48 -0.81c0.38,0.34 0.62,0.73 0.7,1.18 0.09,0.45 0,0.9 -0.26,1.35 -0.29,0.5 -0.66,0.82 -1.1,0.96 -0.45,0.15 -0.89,0.09 -1.34,-0.17 -0.46,-0.27 -0.77,-0.76 -0.93,-1.48l-0.44 -2.18 0 0zm33.82 -92.57c-0.16,0.14 -0.25,0.32 -0.29,0.55 -0.04,0.22 -0.01,0.42 0.08,0.61 0.1,0.19 0.24,0.35 0.42,0.47 0.19,0.13 0.39,0.23 0.6,0.31 0.21,0.09 0.43,0.15 0.66,0.19 0.22,0.04 0.45,0.06 0.68,0.05 0.22,0 0.45,-0.03 0.67,-0.09 0.21,-0.05 0.4,-0.15 0.55,-0.29 0.16,-0.15 0.25,-0.33 0.29,-0.56 0.04,-0.22 0.01,-0.42 -0.08,-0.61 -0.1,-0.19 -0.24,-0.35 -0.42,-0.47 -0.19,-0.12 -0.39,-0.22 -0.6,-0.3 -0.21,-0.09 -0.43,-0.15 -0.66,-0.19 -0.22,-0.04 -0.45,-0.06 -0.68,-0.05 -0.23,0 -0.45,0.03 -0.66,0.08 -0.22,0.05 -0.41,0.15 -0.56,0.3zm4.45 0.5c0.08,0.27 0.09,0.57 0.03,0.89 -0.06,0.32 -0.17,0.59 -0.34,0.83 -0.17,0.23 -0.36,0.41 -0.58,0.53 -0.22,0.11 -0.47,0.2 -0.74,0.26 -0.27,0.06 -0.54,0.08 -0.78,0.08 -0.24,-0.01 -0.49,-0.03 -0.73,-0.07 -0.24,-0.05 -0.48,-0.11 -0.71,-0.19 -0.23,-0.08 -0.47,-0.19 -0.7,-0.34 -0.24,-0.14 -0.45,-0.31 -0.61,-0.5 -0.17,-0.18 -0.29,-0.42 -0.37,-0.69 -0.08,-0.28 -0.09,-0.58 -0.03,-0.9 0.06,-0.32 0.17,-0.59 0.34,-0.82 0.17,-0.24 0.36,-0.41 0.58,-0.53 0.22,-0.12 0.47,-0.21 0.74,-0.27 0.27,-0.06 0.54,-0.08 0.78,-0.08 0.25,0.01 0.49,0.03 0.73,0.07 0.24,0.04 0.47,0.11 0.71,0.19 0.23,0.08 0.47,0.19 0.71,0.34 0.23,0.15 0.44,0.31 0.6,0.5 0.16,0.19 0.29,0.42 0.37,0.7zm-3.45 -5.66c-0.22,0.17 -0.36,0.42 -0.41,0.73 -0.06,0.31 -0.01,0.59 0.13,0.84 0.15,0.25 0.36,0.39 0.65,0.44 0.29,0.06 0.55,-0.01 0.78,-0.19 0.22,-0.18 0.36,-0.43 0.41,-0.74 0.06,-0.31 0.01,-0.59 -0.14,-0.83 -0.15,-0.24 -0.37,-0.39 -0.66,-0.44 -0.28,-0.05 -0.54,0.01 -0.76,0.19zm2.37 1.32c-0.1,0.53 -0.35,0.95 -0.76,1.26 -0.41,0.31 -0.87,0.42 -1.4,0.33 -0.49,-0.09 -0.88,-0.35 -1.17,-0.78 -0.29,-0.43 -0.38,-0.93 -0.28,-1.5 0.12,-0.66 0.43,-1.14 0.93,-1.44 0.5,-0.3 1.21,-0.37 2.13,-0.21 0.38,0.06 0.73,0.17 1.05,0.31 0.32,0.14 0.61,0.32 0.86,0.53 0.25,0.22 0.43,0.49 0.54,0.81 0.12,0.32 0.14,0.67 0.07,1.05 -0.08,0.44 -0.26,0.8 -0.55,1.08 -0.28,0.28 -0.65,0.46 -1.11,0.53l0.16 -0.92c0.38,-0.11 0.6,-0.38 0.68,-0.81 0.06,-0.37 -0.03,-0.7 -0.29,-1 -0.26,-0.29 -0.64,-0.49 -1.15,-0.62 0.29,0.39 0.38,0.85 0.29,1.38zm-1.72 -5.99l-0.45 2.53 -0.81 -0.15 0.66 -3.76 0.82 0.15 1.55 2.51c0.29,0.46 0.6,0.73 0.93,0.78 0.27,0.05 0.5,0 0.69,-0.15 0.19,-0.14 0.31,-0.36 0.36,-0.64 0.04,-0.26 0.01,-0.5 -0.09,-0.71 -0.11,-0.21 -0.29,-0.38 -0.55,-0.49l0.17 -0.92c0.48,0.18 0.83,0.47 1.07,0.87 0.24,0.39 0.31,0.84 0.22,1.36 -0.1,0.56 -0.33,0.98 -0.7,1.27 -0.36,0.3 -0.8,0.4 -1.31,0.31 -0.53,-0.1 -0.99,-0.45 -1.38,-1.07l-1.18 -1.89zm-0.32 -98.09c-0.09,0.19 -0.12,0.39 -0.08,0.61 0.04,0.23 0.14,0.41 0.29,0.56 0.16,0.14 0.34,0.24 0.56,0.29 0.22,0.05 0.44,0.08 0.67,0.09 0.22,0 0.45,-0.02 0.68,-0.06 0.22,-0.04 0.44,-0.1 0.65,-0.18 0.22,-0.09 0.41,-0.19 0.6,-0.32 0.19,-0.12 0.33,-0.28 0.42,-0.47 0.1,-0.19 0.12,-0.39 0.08,-0.62 -0.04,-0.22 -0.13,-0.4 -0.29,-0.55 -0.15,-0.14 -0.34,-0.24 -0.56,-0.29 -0.21,-0.05 -0.44,-0.08 -0.66,-0.08 -0.23,0 -0.46,0.02 -0.68,0.06 -0.23,0.04 -0.45,0.1 -0.66,0.18 -0.21,0.08 -0.41,0.19 -0.6,0.31 -0.18,0.12 -0.32,0.28 -0.42,0.47zm4.35 -1.07c0.17,0.23 0.28,0.51 0.34,0.83 0.06,0.32 0.05,0.61 -0.03,0.89 -0.08,0.28 -0.2,0.51 -0.37,0.7 -0.16,0.18 -0.36,0.35 -0.6,0.5 -0.24,0.15 -0.47,0.26 -0.7,0.35 -0.23,0.08 -0.47,0.14 -0.71,0.18 -0.25,0.05 -0.49,0.07 -0.73,0.07 -0.25,0.01 -0.51,-0.02 -0.78,-0.07 -0.28,-0.06 -0.52,-0.15 -0.74,-0.26 -0.22,-0.12 -0.42,-0.29 -0.59,-0.53 -0.17,-0.23 -0.28,-0.51 -0.34,-0.83 -0.06,-0.32 -0.04,-0.61 0.03,-0.89 0.08,-0.28 0.2,-0.51 0.37,-0.7 0.16,-0.19 0.36,-0.35 0.6,-0.5 0.24,-0.15 0.47,-0.27 0.71,-0.35 0.23,-0.08 0.47,-0.14 0.7,-0.18 0.24,-0.04 0.48,-0.07 0.73,-0.07 0.25,-0.01 0.51,0.02 0.78,0.07 0.28,0.06 0.53,0.15 0.75,0.27 0.21,0.12 0.41,0.29 0.58,0.52zm-5.34 -3.38c0.06,0.33 0.18,0.59 0.37,0.77 0.18,0.18 0.39,0.25 0.63,0.21 0.25,-0.05 0.43,-0.18 0.54,-0.42 0.11,-0.23 0.13,-0.51 0.07,-0.85 -0.06,-0.34 -0.18,-0.6 -0.37,-0.78 -0.18,-0.18 -0.39,-0.25 -0.64,-0.2 -0.24,0.04 -0.41,0.18 -0.52,0.42 -0.12,0.23 -0.14,0.52 -0.08,0.85zm3.39 0.49c0.23,-0.04 0.39,-0.17 0.49,-0.39 0.11,-0.22 0.13,-0.49 0.07,-0.81 -0.06,-0.33 -0.17,-0.58 -0.35,-0.75 -0.17,-0.17 -0.37,-0.23 -0.6,-0.19 -0.24,0.05 -0.41,0.17 -0.51,0.39 -0.1,0.22 -0.12,0.49 -0.06,0.82 0.06,0.33 0.17,0.58 0.34,0.74 0.17,0.17 0.38,0.23 0.62,0.19zm-3.48 1.04c-0.38,-0.31 -0.62,-0.78 -0.73,-1.39 -0.11,-0.61 -0.04,-1.12 0.2,-1.55 0.25,-0.43 0.59,-0.68 1.05,-0.76 0.51,-0.09 0.96,0.08 1.36,0.51 0.2,-0.5 0.56,-0.79 1.06,-0.88 0.44,-0.08 0.84,0.03 1.21,0.33 0.36,0.31 0.6,0.75 0.71,1.35 0.11,0.59 0.04,1.09 -0.2,1.5 -0.24,0.41 -0.57,0.66 -1.01,0.74 -0.51,0.09 -0.94,-0.06 -1.3,-0.45 -0.22,0.54 -0.59,0.86 -1.1,0.95 -0.46,0.08 -0.87,-0.04 -1.25,-0.35zm-0.79 -6.99l0.46 2.52 -0.82 0.15 -0.68 -3.76 0.82 -0.15 2.33 1.83c0.43,0.33 0.81,0.47 1.14,0.41 0.27,-0.05 0.47,-0.18 0.6,-0.38 0.12,-0.2 0.16,-0.45 0.11,-0.73 -0.05,-0.26 -0.16,-0.47 -0.33,-0.64 -0.17,-0.16 -0.4,-0.25 -0.68,-0.26l-0.17 -0.92c0.52,0 0.95,0.15 1.31,0.44 0.36,0.28 0.59,0.68 0.68,1.2 0.1,0.56 0.03,1.04 -0.21,1.44 -0.25,0.4 -0.62,0.65 -1.13,0.74 -0.53,0.09 -1.08,-0.08 -1.67,-0.52l-1.76 -1.37zm-33.03 -89.81c-0.02,0.21 0.02,0.42 0.14,0.61 0.11,0.2 0.26,0.33 0.46,0.42 0.19,0.08 0.4,0.11 0.62,0.09 0.23,-0.03 0.45,-0.07 0.66,-0.15 0.22,-0.07 0.42,-0.17 0.62,-0.28 0.2,-0.12 0.39,-0.25 0.56,-0.4 0.17,-0.15 0.32,-0.31 0.45,-0.49 0.13,-0.18 0.21,-0.38 0.24,-0.59 0.02,-0.21 -0.02,-0.41 -0.14,-0.61 -0.11,-0.19 -0.26,-0.33 -0.46,-0.42 -0.19,-0.08 -0.4,-0.11 -0.62,-0.08 -0.22,0.03 -0.44,0.07 -0.66,0.15 -0.21,0.07 -0.42,0.16 -0.62,0.28 -0.2,0.12 -0.38,0.25 -0.55,0.4 -0.17,0.15 -0.32,0.31 -0.46,0.49 -0.13,0.18 -0.21,0.37 -0.24,0.58zm3.73 -2.47c0.24,0.15 0.44,0.38 0.6,0.66 0.17,0.28 0.26,0.56 0.28,0.85 0.02,0.29 -0.02,0.55 -0.11,0.78 -0.09,0.23 -0.22,0.45 -0.4,0.67 -0.17,0.22 -0.35,0.41 -0.54,0.57 -0.19,0.15 -0.39,0.29 -0.61,0.41 -0.21,0.13 -0.43,0.23 -0.66,0.32 -0.23,0.09 -0.48,0.15 -0.76,0.19 -0.28,0.04 -0.54,0.04 -0.78,0.01 -0.25,-0.04 -0.49,-0.14 -0.73,-0.3 -0.24,-0.16 -0.44,-0.38 -0.6,-0.66 -0.17,-0.29 -0.26,-0.57 -0.28,-0.85 -0.02,-0.29 0.02,-0.55 0.11,-0.78 0.09,-0.24 0.22,-0.46 0.4,-0.68 0.17,-0.22 0.35,-0.41 0.55,-0.57 0.19,-0.15 0.39,-0.29 0.6,-0.41 0.21,-0.12 0.43,-0.23 0.66,-0.32 0.23,-0.08 0.48,-0.15 0.76,-0.19 0.28,-0.04 0.54,-0.04 0.79,0 0.24,0.04 0.48,0.13 0.72,0.3zm-6.36 -2.08c-0.02,0.21 0.02,0.41 0.14,0.61 0.11,0.19 0.26,0.33 0.46,0.42 0.19,0.08 0.4,0.11 0.62,0.09 0.23,-0.03 0.45,-0.08 0.66,-0.15 0.21,-0.07 0.42,-0.17 0.62,-0.28 0.2,-0.12 0.38,-0.25 0.56,-0.4 0.17,-0.15 0.32,-0.32 0.45,-0.5 0.13,-0.18 0.21,-0.37 0.24,-0.58 0.02,-0.21 -0.02,-0.42 -0.14,-0.61 -0.11,-0.2 -0.26,-0.34 -0.46,-0.42 -0.19,-0.09 -0.4,-0.11 -0.62,-0.09 -0.22,0.03 -0.44,0.08 -0.66,0.15 -0.21,0.08 -0.42,0.17 -0.62,0.29 -0.2,0.11 -0.38,0.24 -0.55,0.39 -0.17,0.15 -0.32,0.32 -0.46,0.49 -0.13,0.18 -0.21,0.38 -0.24,0.59zm3.73 -2.48c0.24,0.16 0.44,0.38 0.6,0.66 0.16,0.28 0.26,0.57 0.28,0.86 0.02,0.28 -0.02,0.54 -0.11,0.77 -0.09,0.24 -0.22,0.46 -0.4,0.68 -0.17,0.22 -0.35,0.41 -0.54,0.56 -0.19,0.16 -0.39,0.3 -0.61,0.42 -0.21,0.12 -0.43,0.23 -0.66,0.32 -0.23,0.08 -0.48,0.15 -0.76,0.19 -0.28,0.04 -0.54,0.04 -0.78,0 -0.25,-0.03 -0.49,-0.13 -0.73,-0.29 -0.24,-0.17 -0.44,-0.39 -0.6,-0.67 -0.16,-0.28 -0.26,-0.56 -0.28,-0.85 -0.02,-0.28 0.02,-0.54 0.11,-0.78 0.09,-0.23 0.22,-0.46 0.4,-0.68 0.17,-0.22 0.35,-0.4 0.55,-0.56 0.19,-0.16 0.39,-0.29 0.6,-0.41 0.21,-0.12 0.43,-0.23 0.66,-0.32 0.23,-0.09 0.48,-0.15 0.76,-0.19 0.28,-0.04 0.54,-0.04 0.79,-0.01 0.24,0.04 0.48,0.14 0.72,0.3zm-4.34 -3.12l0.33 0.57c0.16,0.27 0.34,0.45 0.55,0.55 0.21,0.09 0.42,0.07 0.63,-0.05 0.21,-0.12 0.33,-0.29 0.36,-0.53 0.03,-0.23 -0.03,-0.47 -0.19,-0.75 -0.28,-0.47 -0.67,-0.68 -1.17,-0.59l-0.46 -0.8c0.5,-0.16 0.95,-0.14 1.36,0.05 0.41,0.19 0.74,0.5 0.99,0.93 0.29,0.5 0.39,0.98 0.29,1.45 -0.1,0.46 -0.34,0.8 -0.72,1.02 -0.43,0.25 -0.88,0.26 -1.36,0.02 -0.04,0.55 -0.28,0.95 -0.73,1.21 -0.4,0.23 -0.83,0.27 -1.28,0.11 -0.46,-0.15 -0.83,-0.48 -1.13,-0.99 -0.25,-0.43 -0.35,-0.87 -0.31,-1.31 0.04,-0.44 0.25,-0.85 0.63,-1.22l0.46 0.8c-0.32,0.39 -0.34,0.83 -0.06,1.32 0.16,0.27 0.35,0.45 0.58,0.55 0.22,0.09 0.44,0.08 0.65,-0.04 0.22,-0.13 0.35,-0.31 0.38,-0.54 0.04,-0.23 -0.03,-0.49 -0.19,-0.78l-0.33 -0.56 0.72 -0.42zm-68.58 -76.24l1.97 1.65 -0.53 0.64 -2.93 -2.45 0.53 -0.64 2.95 -0.09c0.55,-0.02 0.93,-0.16 1.14,-0.42 0.18,-0.21 0.25,-0.43 0.22,-0.67 -0.04,-0.24 -0.17,-0.45 -0.39,-0.63 -0.2,-0.17 -0.42,-0.27 -0.66,-0.28 -0.23,-0.01 -0.46,0.06 -0.69,0.23l-0.72 -0.6c0.4,-0.32 0.83,-0.49 1.29,-0.5 0.46,-0.01 0.89,0.15 1.29,0.49 0.43,0.36 0.69,0.78 0.76,1.24 0.07,0.46 -0.06,0.89 -0.39,1.29 -0.35,0.41 -0.88,0.63 -1.61,0.67l-2.23 0.07zm-2.23 -4.92l0.5 0.41c0.24,0.21 0.48,0.32 0.7,0.33 0.23,0.02 0.42,-0.07 0.58,-0.26 0.15,-0.18 0.2,-0.39 0.15,-0.61 -0.05,-0.23 -0.19,-0.44 -0.43,-0.65 -0.43,-0.35 -0.86,-0.4 -1.31,-0.15l-0.7 -0.59c0.41,-0.32 0.85,-0.46 1.3,-0.42 0.45,0.03 0.86,0.21 1.24,0.53 0.45,0.37 0.71,0.79 0.77,1.26 0.07,0.46 -0.04,0.87 -0.32,1.21 -0.32,0.38 -0.74,0.54 -1.27,0.49 0.15,0.52 0.06,0.98 -0.27,1.38 -0.3,0.35 -0.68,0.53 -1.16,0.55 -0.48,0.01 -0.95,-0.17 -1.41,-0.55 -0.38,-0.32 -0.63,-0.7 -0.74,-1.12 -0.12,-0.43 -0.06,-0.88 0.18,-1.36l0.7 0.59c-0.16,0.48 -0.03,0.9 0.4,1.26 0.24,0.2 0.48,0.3 0.73,0.31 0.24,0.01 0.44,-0.07 0.6,-0.26 0.16,-0.19 0.22,-0.4 0.17,-0.64 -0.04,-0.23 -0.19,-0.45 -0.45,-0.66l-0.5 -0.42 0.54 -0.63zm6.08 8.04c0.05,0.2 0.16,0.38 0.33,0.52 0.18,0.15 0.37,0.22 0.58,0.24 0.21,0.01 0.42,-0.03 0.62,-0.13 0.2,-0.1 0.39,-0.23 0.57,-0.37 0.17,-0.14 0.33,-0.3 0.48,-0.48 0.15,-0.17 0.28,-0.36 0.39,-0.56 0.11,-0.2 0.19,-0.41 0.25,-0.62 0.07,-0.22 0.07,-0.43 0.02,-0.63 -0.05,-0.21 -0.16,-0.38 -0.33,-0.53 -0.17,-0.14 -0.37,-0.22 -0.58,-0.23 -0.21,-0.02 -0.41,0.03 -0.61,0.13 -0.2,0.1 -0.39,0.22 -0.57,0.37 -0.17,0.14 -0.33,0.3 -0.48,0.48 -0.15,0.17 -0.28,0.36 -0.39,0.56 -0.1,0.2 -0.19,0.4 -0.26,0.62 -0.06,0.21 -0.07,0.42 -0.02,0.63zm2.65 -3.61c0.28,0.07 0.54,0.21 0.79,0.41 0.25,0.21 0.43,0.45 0.55,0.71 0.12,0.26 0.18,0.52 0.17,0.77 -0.01,0.25 -0.05,0.5 -0.14,0.77 -0.09,0.27 -0.19,0.51 -0.32,0.71 -0.12,0.21 -0.26,0.42 -0.42,0.6 -0.16,0.19 -0.33,0.37 -0.52,0.53 -0.18,0.16 -0.4,0.31 -0.64,0.44 -0.25,0.13 -0.5,0.22 -0.74,0.28 -0.24,0.05 -0.5,0.04 -0.78,-0.03 -0.29,-0.07 -0.55,-0.21 -0.8,-0.42 -0.25,-0.21 -0.43,-0.44 -0.54,-0.7 -0.12,-0.27 -0.18,-0.52 -0.17,-0.77 0,-0.25 0.05,-0.51 0.13,-0.78 0.09,-0.26 0.2,-0.5 0.32,-0.71 0.13,-0.22 0.27,-0.41 0.43,-0.6 0.15,-0.18 0.32,-0.36 0.51,-0.52 0.18,-0.16 0.4,-0.31 0.65,-0.45 0.25,-0.13 0.49,-0.22 0.74,-0.27 0.24,-0.05 0.5,-0.04 0.78,0.03zm-94.34 -50.81c0.11,0.18 0.28,0.3 0.49,0.38 0.21,0.08 0.42,0.09 0.62,0.03 0.2,-0.07 0.38,-0.18 0.54,-0.34 0.15,-0.16 0.29,-0.34 0.41,-0.54 0.11,-0.19 0.21,-0.39 0.29,-0.61 0.08,-0.22 0.13,-0.44 0.17,-0.66 0.03,-0.23 0.04,-0.45 0.03,-0.67 -0.02,-0.23 -0.08,-0.43 -0.2,-0.61 -0.12,-0.17 -0.28,-0.3 -0.5,-0.37 -0.21,-0.08 -0.41,-0.09 -0.62,-0.03 -0.2,0.06 -0.38,0.17 -0.53,0.34 -0.15,0.16 -0.29,0.34 -0.4,0.53 -0.12,0.2 -0.22,0.4 -0.3,0.62 -0.08,0.22 -0.13,0.44 -0.17,0.66 -0.03,0.22 -0.04,0.45 -0.03,0.67 0.01,0.23 0.08,0.43 0.2,0.6zm1.25 -4.29c0.29,-0.04 0.58,0 0.89,0.11 0.3,0.11 0.56,0.27 0.76,0.48 0.2,0.21 0.34,0.43 0.42,0.66 0.08,0.24 0.12,0.5 0.13,0.78 0.01,0.28 -0.01,0.54 -0.06,0.78 -0.04,0.24 -0.11,0.47 -0.19,0.71 -0.09,0.23 -0.19,0.45 -0.3,0.67 -0.12,0.21 -0.28,0.42 -0.46,0.63 -0.19,0.21 -0.39,0.38 -0.6,0.51 -0.21,0.13 -0.46,0.21 -0.75,0.24 -0.28,0.03 -0.58,-0.01 -0.88,-0.12 -0.31,-0.11 -0.56,-0.26 -0.76,-0.47 -0.2,-0.21 -0.34,-0.43 -0.42,-0.67 -0.08,-0.23 -0.13,-0.49 -0.14,-0.77 0,-0.28 0.01,-0.54 0.06,-0.79 0.05,-0.24 0.11,-0.47 0.2,-0.7 0.08,-0.23 0.18,-0.45 0.3,-0.67 0.12,-0.21 0.27,-0.43 0.46,-0.63 0.18,-0.21 0.38,-0.38 0.6,-0.51 0.21,-0.13 0.46,-0.21 0.74,-0.24zm-4.12 0.56l0.85 0.31 -0.5 1.37 0.85 0.31 -0.28 0.78 -0.85 -0.3 -0.39 1.08 -0.85 -0.31 0.39 -1.08 -2.71 -0.98 0.28 -0.78 3.67 -2.38 0.99 0.36 -3.68 2.37 1.73 0.63 0.5 -1.38zm-5.89 -1.85l0.62 0.22c0.3,0.11 0.55,0.13 0.77,0.07 0.22,-0.07 0.37,-0.22 0.46,-0.45 0.08,-0.22 0.05,-0.43 -0.07,-0.63 -0.12,-0.19 -0.33,-0.34 -0.63,-0.45 -0.52,-0.19 -0.94,-0.09 -1.28,0.3l-0.86 -0.32c0.28,-0.44 0.64,-0.72 1.07,-0.83 0.44,-0.12 0.89,-0.1 1.36,0.07 0.54,0.2 0.93,0.5 1.15,0.92 0.22,0.42 0.26,0.83 0.11,1.25 -0.17,0.46 -0.51,0.76 -1.02,0.89 0.31,0.44 0.38,0.91 0.21,1.39 -0.16,0.43 -0.46,0.74 -0.9,0.92 -0.45,0.17 -0.95,0.16 -1.51,-0.04 -0.47,-0.17 -0.83,-0.44 -1.08,-0.8 -0.26,-0.36 -0.36,-0.81 -0.3,-1.34l0.86 0.31c0.01,0.51 0.29,0.86 0.81,1.05 0.29,0.11 0.56,0.12 0.79,0.05 0.23,-0.07 0.39,-0.22 0.48,-0.45 0.08,-0.24 0.06,-0.46 -0.06,-0.66 -0.12,-0.2 -0.34,-0.36 -0.65,-0.47l-0.61 -0.22 0.28 -0.78zm-100.86 -18.76c0.25,-0.12 0.54,-0.18 0.87,-0.18 0.32,0 0.61,0.06 0.87,0.19 0.26,0.12 0.47,0.28 0.63,0.48 0.15,0.19 0.28,0.42 0.38,0.68 0.11,0.26 0.18,0.51 0.22,0.75 0.03,0.24 0.05,0.49 0.05,0.73 0,0.25 -0.02,0.5 -0.06,0.74 -0.03,0.24 -0.1,0.49 -0.21,0.75 -0.1,0.26 -0.23,0.49 -0.39,0.68 -0.15,0.2 -0.36,0.36 -0.62,0.48 -0.26,0.13 -0.55,0.19 -0.88,0.19 -0.32,0 -0.61,-0.06 -0.87,-0.19 -0.26,-0.12 -0.46,-0.28 -0.62,-0.48 -0.15,-0.19 -0.28,-0.42 -0.39,-0.68 -0.1,-0.26 -0.17,-0.51 -0.21,-0.76 -0.04,-0.24 -0.06,-0.49 -0.06,-0.73 0,-0.24 0.02,-0.48 0.06,-0.73 0.04,-0.24 0.11,-0.49 0.21,-0.75 0.11,-0.26 0.24,-0.49 0.39,-0.69 0.16,-0.19 0.37,-0.35 0.63,-0.48zm223.63 89.08c-57.04,-57.04 -135.85,-92.32 -222.89,-92.32 -87.04,0 -165.85,35.28 -222.89,92.32 -57.04,57.04 -92.32,135.84 -92.32,222.89 0,87.04 35.28,165.85 92.32,222.89 57.04,57.04 135.85,92.32 222.89,92.32 87.04,0 165.85,-35.28 222.89,-92.32 57.04,-57.04 92.32,-135.85 92.32,-222.89 0,-87.05 -35.28,-165.85 -92.32,-222.89zm-222.89 -94.71c87.7,0 167.1,35.55 224.58,93.02 57.47,57.48 93.02,136.88 93.02,224.58 0,87.7 -35.55,167.1 -93.02,224.58 -57.48,57.47 -136.88,93.02 -224.58,93.02 -87.7,0 -167.1,-35.55 -224.58,-93.02 -57.47,-57.48 -93.02,-136.88 -93.02,-224.58 0,-87.7 35.55,-167.1 93.02,-224.58 57.48,-57.47 136.88,-93.02 224.58,-93.02zm312.56 186.58c1.45,1.45 1.45,3.81 0,5.26 -1.45,1.45 -3.8,1.45 -5.25,0 -1.46,-1.45 -1.46,-3.81 0,-5.26 1.45,-1.45 3.8,-1.45 5.25,0zm1.1 259.39c0,2.05 -1.67,3.72 -3.72,3.72 -2.05,0 -3.72,-1.67 -3.72,-3.72 0,-2.05 1.67,-3.72 3.72,-3.72 2.05,0 3.72,1.67 3.72,3.72zm-182.64 184.19c-1.46,1.45 -3.81,1.45 -5.26,0 -1.45,-1.45 -1.45,-3.81 0,-5.26 1.45,-1.45 3.8,-1.45 5.26,0 1.45,1.45 1.45,3.81 0,5.26zm-259.39 1.09c-2.05,0 -3.72,-1.66 -3.72,-3.71 0,-2.06 1.67,-3.72 3.72,-3.72 2.05,0 3.71,1.66 3.71,3.72 0,2.05 -1.66,3.71 -3.71,3.71zm-184.19 -182.64c-1.45,-1.45 -1.45,-3.8 0,-5.25 1.45,-1.45 3.8,-1.45 5.25,0 1.46,1.45 1.46,3.8 0,5.25 -1.45,1.45 -3.8,1.45 -5.25,0zm-1.1 -259.38c0,-2.06 1.67,-3.72 3.72,-3.72 2.05,0 3.72,1.66 3.72,3.72 0,2.05 -1.67,3.71 -3.72,3.71 -2.05,0 -3.72,-1.66 -3.72,-3.71zm182.64 -184.19c1.46,-1.45 3.81,-1.45 5.26,0 1.45,1.45 1.45,3.8 0,5.25 -1.45,1.46 -3.8,1.46 -5.26,0 -1.45,-1.45 -1.45,-3.8 0,-5.25zm260.39 -1.1c2.06,0 3.72,1.66 3.72,3.72 0,2.05 -1.66,3.71 -3.72,3.71 -2.05,0 -3.71,-1.66 -3.71,-3.71 0,-2.06 1.66,-3.72 3.71,-3.72zm-121.12 -16.7l-2.06 0 -12.38 -18.13 0 18.13 -2.06 0 0 -20.64 2.78 0 11.66 17.12 0 -17.12 2.06 0 0 20.64z"/>
 </g>
</svg>
