<svg
    xmlns="http://www.w3.org/2000/svg"
    viewBox="0 0 505 112"
    id="vector">
    <path
        id="path"
        d="M 244.346 4.464 C 235.046 11.064 231.446 25.264 235.946 37.864 C 237.946 43.764 242.646 50.664 246.846 53.764 L 249.246 55.664 L 254.546 50.064 C 267.446 36.164 266.946 13.664 253.446 4.464 C 249.546 1.664 248.146 1.764 244.346 4.464 Z M 253.346 6.364 C 254.746 7.464 257.146 10.564 258.746 13.064 C 261.146 17.164 261.446 18.764 261.446 26.264 C 261.446 33.464 261.046 35.564 258.746 40.264 C 257.246 43.264 254.446 47.364 252.446 49.264 L 248.946 52.664 L 245.446 49.264 C 243.446 47.364 240.646 43.264 239.146 40.264 C 236.846 35.564 236.446 33.464 236.446 26.264 C 236.446 18.764 236.746 17.164 239.146 13.064 C 242.246 7.964 246.246 4.264 248.946 4.264 C 249.946 4.264 251.846 5.164 253.346 6.364 Z"/>
    <path
        id="path_1"
        d="M 102.846 33.164 C 91.546 35.364 79.946 44.764 74.646 56.064 C 71.646 62.264 71.446 63.564 71.446 73.264 C 71.446 82.464 71.746 84.464 74.046 89.264 C 77.646 96.964 81.146 100.764 87.746 103.964 C 92.646 106.364 94.646 106.764 101.946 106.764 C 112.646 106.764 118.346 104.664 123.746 98.864 C 130.446 91.564 131.646 83.064 127.346 74.364 C 123.746 67.264 118.746 63.964 110.546 63.464 C 105.646 63.164 103.546 63.564 99.946 65.464 C 94.646 68.164 91.546 72.864 92.546 76.764 L 93.246 79.364 L 96.046 75.964 C 99.646 71.564 106.846 69.664 113.246 71.364 C 124.246 74.364 128.446 89.064 120.646 97.864 C 115.746 103.564 110.646 105.664 101.846 105.664 C 95.146 105.764 93.746 105.364 89.346 102.764 C 80.246 97.064 75.246 84.664 76.146 70.064 C 77.546 49.264 96.646 34.064 117.246 37.364 C 129.946 39.464 140.246 44.464 159.846 58.164 C 180.546 72.664 194.746 80.164 212.946 86.064 C 239.846 94.864 258.146 94.864 284.946 86.064 C 303.246 80.064 317.446 72.564 338.046 58.164 C 357.646 44.464 367.946 39.464 380.646 37.364 C 401.246 34.064 420.346 49.264 421.746 70.064 C 422.646 84.664 417.646 97.064 408.546 102.764 C 404.146 105.364 402.746 105.764 396.046 105.664 C 387.246 105.664 382.146 103.564 377.246 97.864 C 369.446 89.064 373.646 74.364 384.646 71.364 C 391.046 69.664 398.246 71.564 401.846 75.964 L 404.646 79.364 L 405.346 76.764 C 406.346 72.864 403.246 68.164 397.946 65.464 C 394.346 63.564 392.246 63.164 387.346 63.464 C 379.146 63.964 374.146 67.264 370.546 74.364 C 366.246 83.064 367.446 91.564 374.146 98.864 C 379.546 104.664 385.246 106.764 395.946 106.764 C 409.946 106.764 418.046 101.664 423.846 89.264 C 426.146 84.464 426.446 82.464 426.446 73.264 C 426.446 63.564 426.246 62.264 423.246 56.064 C 419.246 47.464 412.246 40.464 403.846 36.464 C 386.246 28.064 366.246 33.164 339.246 52.964 C 311.546 73.264 290.446 83.464 265.446 88.764 C 245.246 92.964 222.946 88.964 196.446 76.364 C 182.946 69.864 175.646 65.364 158.646 52.964 C 136.046 36.464 118.346 30.164 102.846 33.164 Z"/>
    <path
        id="path_2"
        d="M 189.046 37.364 C 186.646 37.864 184.546 38.364 184.346 38.564 C 184.146 38.764 186.346 40.564 189.346 42.664 C 195.646 46.964 201.846 53.464 210.746 64.964 C 221.446 78.764 232.646 84.564 248.946 84.564 C 265.946 84.564 276.146 78.964 288.846 62.864 C 297.446 51.864 303.146 46.164 309.946 41.664 C 314.046 38.964 314.046 38.864 311.746 37.964 C 307.746 36.464 293.646 35.964 287.546 37.164 C 279.746 38.564 275.146 40.964 265.446 48.364 C 261.046 51.664 255.546 55.364 253.246 56.564 L 248.946 58.664 L 244.746 56.564 C 242.346 55.364 236.846 51.664 232.446 48.364 C 228.046 44.964 222.646 41.364 220.446 40.264 C 212.746 36.564 199.446 35.264 189.046 37.364 Z M 205.246 38.264 C 213.946 39.664 220.446 43.164 230.346 51.664 C 235.246 55.964 241.446 60.464 244.046 61.864 L 248.946 64.264 L 253.846 61.864 C 256.446 60.464 262.646 55.964 267.546 51.664 C 277.446 43.164 283.946 39.664 292.646 38.164 C 297.846 37.364 308.246 37.764 310.246 38.964 C 310.746 39.264 308.746 41.064 305.746 43.064 C 302.846 44.964 294.846 52.364 287.946 59.364 C 281.046 66.264 273.646 72.964 271.446 74.064 C 257.146 81.264 240.746 81.264 226.446 74.064 C 224.246 72.964 216.846 66.264 209.946 59.364 C 203.046 52.364 195.046 44.964 192.046 42.964 C 186.446 39.264 186.446 38.764 192.446 37.964 C 197.946 37.264 199.446 37.264 205.246 38.264 Z"/>
    <path
        id="path_3"
        d="M 53.346 67.264 C 48.446 69.264 46.746 74.964 49.446 80.164 C 52.346 85.764 61.946 85.964 64.846 80.464 C 69.046 72.564 61.546 63.964 53.346 67.264 Z M 59.946 72.064 C 61.746 73.464 62.046 74.564 61.546 76.564 C 60.746 80.064 56.646 81.164 53.946 78.764 C 51.446 76.464 51.446 74.764 53.946 72.264 C 56.446 69.764 57.146 69.764 59.946 72.064 Z"/>
    <path
        id="path_4"
        d="M 435.146 68.764 C 429.746 73.264 430.946 81.164 437.446 83.864 C 443.646 86.464 449.946 81.864 449.946 74.864 C 449.946 71.264 446.046 67.264 441.846 66.664 C 439.046 66.164 437.746 66.564 435.146 68.764 Z M 443.946 72.264 C 446.446 74.764 446.446 76.464 443.946 78.764 C 441.246 81.164 437.146 80.064 436.346 76.564 C 435.846 74.564 436.146 73.464 437.946 72.064 C 440.746 69.764 441.446 69.764 443.946 72.264 Z"/>
    <path
        id="path_5"
        d="M -389.454 72.564 C -391.854 74.364 -391.154 77.364 -388.054 78.964 C -386.054 79.964 -342.754 80.164 -173.254 79.964 C 35.646 79.764 39.146 79.764 40.546 77.864 C 42.346 75.364 42.346 74.764 40.346 72.864 C 38.946 71.464 18.046 71.264 -174.454 71.264 C -349.154 71.264 -387.954 71.464 -389.454 72.564 Z"/>
    <path
        id="path_6"
        d="M 457.546 72.864 C 455.546 74.764 455.546 75.364 457.346 77.864 C 458.746 79.764 462.246 79.764 671.146 79.964 C 895.746 80.264 887.946 80.364 888.746 75.764 C 889.746 71.064 899.046 71.264 672.346 71.264 C 479.846 71.264 458.946 71.464 457.546 72.864 Z"/>
    <path
        id="path_7"
        d="M 158.146 79.464 C 152.946 81.364 143.946 88.764 143.946 91.064 C 143.946 91.664 145.046 93.464 146.346 94.964 C 148.646 97.664 149.146 97.764 157.646 97.664 C 165.146 97.664 168.346 96.964 179.446 93.464 C 186.646 91.164 194.946 88.964 197.946 88.664 C 206.746 87.664 207.046 86.864 199.846 83.464 C 186.146 76.964 168.846 75.264 158.146 79.464 Z M 194.946 83.764 L 200.446 85.564 L 192.446 86.764 C 188.046 87.464 179.746 89.164 173.946 90.764 C 162.846 93.564 152.646 94.364 150.746 92.464 C 148.546 90.264 154.646 85.564 163.446 82.564 C 168.946 80.764 187.746 81.464 194.946 83.764 Z"/>
    <path
        id="path_8"
        d="M 309.346 79.164 C 305.946 80.164 300.546 82.164 297.446 83.764 C 290.946 86.864 291.346 87.664 299.946 88.664 C 302.946 88.964 311.346 91.164 318.446 93.464 C 329.546 96.964 332.746 97.664 340.246 97.664 C 348.746 97.764 349.246 97.664 351.546 94.964 C 352.846 93.464 353.946 91.664 353.946 91.064 C 353.946 88.664 344.946 81.364 339.546 79.364 C 332.346 76.664 318.346 76.564 309.346 79.164 Z M 338.646 84.164 C 344.846 86.964 348.846 90.764 347.146 92.464 C 345.146 94.464 334.946 93.564 322.346 90.364 C 315.746 88.664 307.446 86.964 304.046 86.664 C 299.746 86.164 298.246 85.664 299.246 85.064 C 306.946 80.764 329.746 80.264 338.646 84.164 Z"/>
</svg>
