<svg xmlns="http://www.w3.org/2000/svg" width="700" height="700" 
viewBox="0 0 700 700">
  <g>
     <path d="M700 350.15c0,0 -20.14,-0.25 -20.14,-0.25 0,0 0,-0.03 0,-0.03 0,0 -3.36,-0.04 -3.36,-0.04 0,0 -0.04,3.41 -0.04,3.41 0,0 20.14,0.25 20.14,0.25 0,0 -3.41,45.15 -3.41,45.15 0,0 -9.98,-1.36 -9.98,-1.36 0,0 0.45,-3.34 0.45,-3.34 0,0 6.66,0.91 6.66,0.91 0,0 1.21,-10.26 1.21,-10.26 0,0 -16.69,-1.87 -16.69,-1.87 0,0 -2.6,19.63 -2.6,19.63 0,0 3.32,0.54 3.32,0.54 0,0 2.25,-16.44 2.25,-16.44 0,0 10.01,1.12 10.01,1.12 0,0 -0.38,3.35 -0.38,3.35 0,0 -6.67,-0.74 -6.67,-0.74 0,0 -1.36,9.94 -1.36,9.94 0,0 16.57,2.68 16.57,2.68 0,0 4.02,-52.65 4.02,-52.65 0,0 0,0 0,0l0 0zm-4.56 55.99c0,0 -19.89,-3.22 -19.89,-3.22 0,0 0.01,-0.03 0.01,-0.03 0,0 -3.32,-0.54 -3.32,-0.54 0,0 -0.54,3.36 -0.54,3.36 0,0 19.88,3.22 19.88,3.22 0,0 -10.7,44.29 -10.7,44.29 0,0 -9.6,-3.05 -9.6,-3.05 0,0 1.01,-3.26 1.01,-3.26 0,0 6.45,1.87 6.45,1.87 0,0 2.81,-9.93 2.81,-9.93 0,0 -16.23,-4.29 -16.23,-4.29 0,0 -5.63,18.77 -5.63,18.77 0,0 3.17,1.09 3.17,1.09 0,0 4.87,-15.86 4.87,-15.86 0,0 9.67,2.81 9.67,2.81 0,0 -0.94,3.24 -0.94,3.24 0,0 -6.45,-1.88 -6.45,-1.88 0,0 -2.95,9.65 -2.95,9.65 0,0 16,5.07 16,5.07 0,0 12.38,-51.31 12.38,-51.31 0,0 0,0 0,0l0 0zm-13.54 54.87c0,0 -19.05,-6.56 -19.05,-6.56 0,0 0.01,-0.03 0.01,-0.03 0,0 -3.17,-1.09 -3.17,-1.09 0,0 -1.11,3.22 -1.11,3.22 0,0 19.05,6.56 19.05,6.56 0,0 -17.53,41.74 -17.53,41.74 0,0 -9.05,-4.41 -9.05,-4.41 0,0 1.48,-3.04 1.48,-3.04 0,0 6.03,2.95 6.03,2.95 0,0 4.39,-9.35 4.39,-9.35 0,0 -15.26,-6.99 -15.26,-6.99 0,0 -8.68,17.81 -8.68,17.81 0,0 2.98,1.54 2.98,1.54 0,0 7.35,-14.88 7.35,-14.88 0,0 9.15,4.19 9.15,4.19 0,0 -1.47,3.17 -1.47,3.17 0,0 -6.03,-2.94 -6.03,-2.94 0,0 -4.48,9.04 -4.48,9.04 0,0 14.91,7.71 14.91,7.71 0,0 20.48,-48.64 20.48,-48.64 0,0 0,0 0,0l0 0zm-22.04 51.64c0,0 -17.88,-9.26 -17.88,-9.26 0,0 0.01,-0.03 0.01,-0.03 0,0 -2.98,-1.54 -2.98,-1.54 0,0 -1.49,2.83 -1.49,2.83 0,0 17.65,9.69 17.65,9.69 0,0 -24.04,38.38 -24.04,38.38 0,0 -8.17,-5.89 -8.17,-5.89 0,0 1.98,-2.74 1.98,-2.74 0,0 5.44,3.93 5.44,3.93 0,0 5.94,-8.71 5.94,-8.71 0,0 -14.08,-9.13 -14.08,-9.13 0,0 -11.3,16.01 -11.3,16.01 0,0 2.67,2.03 2.67,2.03 0,0 9.64,-13.51 9.64,-13.51 0,0 8.31,5.68 8.31,5.68 0,0 -1.91,2.79 -1.91,2.79 0,0 -5.54,-3.79 -5.54,-3.79 0,0 -5.85,8.21 -5.85,8.21 0,0 13.62,9.82 13.62,9.82 0,0 27.98,-44.77 27.98,-44.77 0,0 0,0 0,0l0 0zm-30.23 47.77c0,0 -16.04,-12.18 -16.04,-12.18 0,0 0.02,-0.02 0.02,-0.02 0,0 -2.67,-2.03 -2.67,-2.03 0,0 -2.06,2.71 -2.06,2.71 0,0 16.04,12.18 16.04,12.18 0,0 -30.06,34.27 -30.06,34.27 0,0 -7.04,-7.21 -7.04,-7.21 0,0 2.39,-2.44 2.39,-2.44 0,0 4.81,4.68 4.81,4.68 0,0 7.12,-7.48 7.12,-7.48 0,0 -12.3,-11.42 -12.3,-11.42 0,0 -13.86,14.15 -13.86,14.15 0,0 2.34,2.4 2.34,2.4 0,0 11.68,-11.79 11.68,-11.79 0,0 7.38,6.85 7.38,6.85 0,0 -2.41,2.54 -2.41,2.54 0,0 -4.81,-4.69 -4.81,-4.69 0,0 -7.1,7.16 -7.1,7.16 0,0 11.72,12.01 11.72,12.01 0,0 34.85,-39.69 34.85,-39.69 0,0 0,0 0,0l0 0zm-37.26 42.04c0,0 -14.07,-14.41 -14.07,-14.41 0,0 0.02,-0.02 0.02,-0.02 0,0 -2.34,-2.4 -2.34,-2.4 0,0 -2.32,2.2 -2.32,2.2 0,0 13.7,14.75 13.7,14.75 0,0 -34.96,28.81 -34.96,28.81 0,0 -5.89,-8.17 -5.89,-8.17 0,0 2.74,-1.97 2.74,-1.97 0,0 3.92,5.44 3.92,5.44 0,0 8.4,-6.37 8.4,-6.37 0,0 -10.48,-13.11 -10.48,-13.11 0,0 -15.8,11.6 -15.8,11.6 0,0 1.9,2.77 1.9,2.77 0,0 13.42,-9.76 13.42,-9.76 0,0 6.09,8.01 6.09,8.01 0,0 -2.69,2.05 -2.69,2.05 0,0 -4.06,-5.35 -4.06,-5.35 0,0 -8.15,5.95 -8.15,5.95 0,0 9.83,13.6 9.83,13.6 0,0 40.74,-33.62 40.74,-33.62 0,0 0,0 0,0l0 0zm-43.83 35.75c0,0 -11.38,-16.61 -11.38,-16.61 0,0 0.03,-0.01 0.03,-0.01 0,0 -1.9,-2.77 -1.9,-2.77 0,0 -2.81,1.92 -2.81,1.92 0,0 11.38,16.61 11.38,16.61 0,0 -39.36,22.98 -39.36,22.98 0,0 -4.42,-9.05 -4.42,-9.05 0,0 3.05,-1.55 3.05,-1.55 0,0 3.09,5.96 3.09,5.96 0,0 9.12,-4.85 9.12,-4.85 0,0 -8.08,-14.7 -8.08,-14.7 0,0 -17.64,9.04 -17.64,9.04 0,0 1.48,3.01 1.48,3.01 0,0 14.81,-7.49 14.81,-7.49 0,0 4.85,8.83 4.85,8.83 0,0 -3.09,1.63 -3.09,1.63 0,0 -3.09,-5.96 -3.09,-5.96 0,0 -9,4.54 -9,4.54 0,0 7.35,15.08 7.35,15.08 0,0 45.61,-26.61 45.61,-26.61 0,0 0,0 0,0l0 0zm-48.64 28.09c0,0 -8.83,-18.09 -8.83,-18.09 0,0 0.03,-0.02 0.03,-0.02 0,0 -1.48,-3.01 -1.48,-3.01 0,0 -2.9,1.34 -2.9,1.34 0,0 8.38,18.3 8.38,18.3 0,0 -42.27,16.27 -42.27,16.27 0,0 -3.05,-9.6 -3.05,-9.6 0,0 3.22,-1.02 3.22,-1.02 0,0 2.03,6.4 2.03,6.4 0,0 9.79,-3.31 9.79,-3.31 0,0 -5.46,-15.86 -5.46,-15.86 0,0 -18.87,6.07 -18.87,6.07 0,0 0.94,3.22 0.94,3.22 0,0 15.83,-5.02 15.83,-5.02 0,0 3.28,9.52 3.28,9.52 0,0 -3.19,1.1 -3.19,1.1 0,0 -2.19,-6.34 -2.19,-6.34 0,0 -9.58,3.03 -9.58,3.03 0,0 4.69,16.11 4.69,16.11 0,0 49.63,-19.09 49.63,-19.09 0,0 0,0 0,0l0 0zm-52.87 20.03c0,0 -5.63,-19.33 -5.63,-19.33 0,0 0.03,-0.01 0.03,-0.01 0,0 -0.94,-3.22 -0.94,-3.22 0,0 -3.27,0.95 -3.27,0.95 0,0 5.63,19.33 5.63,19.33 0,0 -44.63,9.32 -44.63,9.32 0,0 -1.36,-9.97 -1.36,-9.97 0,0 3.38,-0.49 3.38,-0.49 0,0 1.07,6.63 1.07,6.63 0,0 10.19,-1.72 10.19,-1.72 0,0 -3.08,-16.49 -3.08,-16.49 0,0 -19.39,2.96 -19.39,2.96 0,0 0.38,3.33 0.38,3.33 0,0 16.42,-2.41 16.42,-2.41 0,0 1.61,9.94 1.61,9.94 0,0 -3.33,0.54 -3.33,0.54 0,0 -1.07,-6.63 -1.07,-6.63 0,0 -9.98,1.47 -9.98,1.47 0,0 2.27,16.62 2.27,16.62 0,0 51.7,-10.82 51.7,-10.82 0,0 0,0 0,0l0 0zm-55.42 11.3c0,0 -2.23,-20 -2.23,-20 0,0 0.03,0 0.03,0 0,0 -0.38,-3.34 -0.38,-3.34 0,0 -3.38,0.38 -3.38,0.38 0,0 2.24,20.01 2.24,20.01 0,0 -45.28,2.06 -45.28,2.06 0,0 0.13,-10.07 0.13,-10.07 0,0 3.38,0.04 3.38,0.04 0,0 -0.09,6.71 -0.09,6.71 0,0 10.34,-0.04 10.34,-0.04 0,0 -0.21,-16.77 -0.21,-16.77 0,0 -19.8,-0.21 -19.8,-0.21 0,0 -0.13,3.35 -0.13,3.35 0,0 16.6,0.25 16.6,0.25 0,0 0.12,10.07 0.12,10.07 0,0 -3.5,0.04 -3.5,0.04 0,0 0.09,-6.71 0.09,-6.71 0,0 -10.09,-0.17 -10.09,-0.17 0,0 -0.64,16.77 -0.64,16.77 0,0 52.8,-2.36 52.8,-2.36 0,0 0,0 0,0l0 -0.01zm-56.17 2.24c0,0 0.76,-20.12 0.76,-20.12 0,0 0.03,0 0.03,0 0,0 0.13,-3.35 0.13,-3.35 0,0 -3.4,-0.13 -3.4,-0.13 0,0 -0.77,20.12 -0.77,20.12 0,0 -45.34,-5.23 -45.34,-5.23 0,0 1.9,-9.89 1.9,-9.89 0,0 3.37,0.59 3.37,0.59 0,0 -1.1,6.62 -1.1,6.62 0,0 10.22,1.59 10.22,1.59 0,0 2.32,-16.62 2.32,-16.62 0,0 -19.52,-3.33 -19.52,-3.33 0,0 -0.63,3.3 -0.63,3.3 0,0 16.34,2.89 16.34,2.89 0,0 -1.39,9.97 -1.39,9.97 0,0 -3.46,-0.56 -3.46,-0.56 0,0 1.1,-6.62 1.1,-6.62 0,0 -9.94,-1.76 -9.94,-1.76 0,0 -3.15,16.48 -3.15,16.48 0,0 52.53,6.05 52.53,6.05 0,0 0,0 0,0l0 0zm-55.85 -6.69c0,0 3.79,-19.77 3.79,-19.77 0,0 0.03,0.01 0.03,0.01 0,0 0.63,-3.3 0.63,-3.3 0,0 -3.12,-0.67 -3.12,-0.67 0,0 -4.29,19.68 -4.29,19.68 0,0 -43.6,-12.37 -43.6,-12.37 0,0 3.35,-9.5 3.35,-9.5 0,0 3.18,1.13 3.18,1.13 0,0 -2.23,6.33 -2.23,6.33 0,0 9.82,3.24 9.82,3.24 0,0 5.18,-15.96 5.18,-15.96 0,0 -18.72,-6.48 -18.72,-6.48 0,0 -1.19,3.14 -1.19,3.14 0,0 15.66,5.49 15.66,5.49 0,0 -3.11,9.57 -3.11,9.57 0,0 -3.21,-1.04 -3.21,-1.04 0,0 2.08,-6.38 2.08,-6.38 0,0 -9.49,-3.32 -9.49,-3.32 0,0 -5.96,15.68 -5.96,15.68 0,0 51.2,14.53 51.2,14.53 0,0 0,0 0,0l0 -0.01zm-54.36 -15.72c0,0 7.16,-18.82 7.16,-18.82 0,0 0.03,0.02 0.03,0.02 0,0 1.19,-3.14 1.19,-3.14 0,0 -3.18,-1.21 -3.18,-1.21 0,0 -7.16,18.82 -7.16,18.82 0,0 -41.26,-19.36 -41.26,-19.36 0,0 4.91,-8.79 4.91,-8.79 0,0 3,1.65 3,1.65 0,0 -3.14,5.93 -3.14,5.93 0,0 9.18,4.75 9.18,4.75 0,0 7.47,-15.02 7.47,-15.02 0,0 -17.28,-9.29 -17.28,-9.29 0,0 -1.7,2.89 -1.7,2.89 0,0 14.57,7.95 14.57,7.95 0,0 -4.7,8.9 -4.7,8.9 0,0 -2.98,-1.57 -2.98,-1.57 0,0 3.13,-5.94 3.13,-5.94 0,0 -8.86,-4.82 -8.86,-4.82 0,0 -8.19,14.64 -8.19,14.64 0,0 47.81,22.41 47.81,22.41 0,0 0,0 0,0l0 0zm-51.06 -24.25c0,0 10.25,-17.33 10.25,-17.33 0,0 0.02,0.01 0.02,0.01 0,0 1.71,-2.89 1.71,-2.89 0,0 -2.93,-1.73 -2.93,-1.73 0,0 -10.25,17.33 -10.25,17.33 0,0 -37.38,-25.53 -37.38,-25.53 0,0 6.12,-7.99 6.12,-7.99 0,0 2.68,2.06 2.68,2.06 0,0 -4.08,5.32 -4.08,5.32 0,0 8.28,6.18 8.28,6.18 0,0 9.89,-13.56 9.89,-13.56 0,0 -15.72,-12.07 -15.72,-12.07 0,0 -2.11,2.61 -2.11,2.61 0,0 13.12,10.18 13.12,10.18 0,0 -5.93,8.14 -5.93,8.14 0,0 -2.81,-2.09 -2.81,-2.09 0,0 4.09,-5.32 4.09,-5.32 0,0 -7.97,-6.19 -7.97,-6.19 0,0 -10.52,13.06 -10.52,13.06 0,0 43.54,29.81 43.54,29.81 0,0 0,0 0,0l0 0zm-46.17 -31.93c0,0 12.63,-15.68 12.63,-15.68 0,0 0.03,0.02 0.03,0.02 0,0 2.1,-2.61 2.1,-2.61 0,0 -2.47,-2.04 -2.47,-2.04 0,0 -13.01,15.37 -13.01,15.37 0,0 -32.79,-31.18 -32.79,-31.18 0,0 7.38,-6.86 7.38,-6.86 0,0 2.3,2.47 2.3,2.47 0,0 -4.92,4.57 -4.92,4.57 0,0 7.18,7.43 7.18,7.43 0,0 12.01,-11.73 12.01,-11.73 0,0 -13.57,-14.44 -13.57,-14.44 0,0 -2.52,2.23 -2.52,2.23 0,0 11.33,12.14 11.33,12.14 0,0 -7.21,7.04 -7.21,7.04 0,0 -2.36,-2.42 -2.36,-2.42 0,0 4.81,-4.69 4.81,-4.69 0,0 -6.86,-7.34 -6.86,-7.34 0,0 -12.55,11.14 -12.55,11.14 0,0 38.49,36.59 38.49,36.59 0,0 0,0 0,0l0 -0.01zm-40.73 -39.11c0,0 15.06,-13.36 15.06,-13.36 0,0 0.02,0.02 0.02,0.02 0,0 2.51,-2.23 2.51,-2.23 0,0 -2.26,-2.54 -2.26,-2.54 0,0 -15.06,13.36 -15.06,13.36 0,0 -27.57,-36.24 -27.57,-36.24 0,0 8.42,-5.54 8.42,-5.54 0,0 1.88,2.85 1.88,2.85 0,0 -5.52,3.82 -5.52,3.82 0,0 5.94,8.46 5.94,8.46 0,0 13.56,-9.89 13.56,-9.89 0,0 -11,-16.24 -11,-16.24 0,0 -2.85,1.78 -2.85,1.78 0,0 9.24,13.79 9.24,13.79 0,0 -8.28,5.74 -8.28,5.74 0,0 -1.92,-2.77 -1.92,-2.77 0,0 5.52,-3.83 5.52,-3.83 0,0 -5.62,-8.37 -5.62,-8.37 0,0 -14.03,9.22 -14.03,9.22 0,0 31.96,41.97 31.96,41.97 0,0 0,0 0,0l0 0zm-33.97 -45.12c0,0 17.09,-10.66 17.09,-10.66 0,0 0.01,0.03 0.01,0.03 0,0 2.85,-1.78 2.85,-1.78 0,0 -1.81,-2.89 -1.81,-2.89 0,0 -17.08,10.66 -17.08,10.66 0,0 -21.43,-40.2 -21.43,-40.2 0,0 9.23,-4.03 9.23,-4.03 0,0 1.44,3.1 1.44,3.1 0,0 -6.09,2.84 -6.09,2.84 0,0 4.49,9.3 4.49,9.3 0,0 15.03,-7.47 15.03,-7.47 0,0 -8.33,-17.96 -8.33,-17.96 0,0 -3.08,1.34 -3.08,1.34 0,0 6.9,15.1 6.9,15.1 0,0 -9.02,4.48 -9.02,4.48 0,0 -1.51,-3.15 -1.51,-3.15 0,0 6.08,-2.84 6.08,-2.84 0,0 -4.18,-9.18 -4.18,-9.18 0,0 -15.39,6.73 -15.39,6.73 0,0 24.8,46.58 24.8,46.58 0,0 0,0 0,0l0 0zm-26.15 -49.68c0,0 18.46,-8.07 18.46,-8.07 0,0 0.01,0.03 0.01,0.03 0,0 3.08,-1.35 3.08,-1.35 0,0 -1.24,-2.95 -1.24,-2.95 0,0 -18.64,7.62 -18.64,7.62 0,0 -14.56,-42.89 -14.56,-42.89 0,0 9.72,-2.63 9.72,-2.63 0,0 0.88,3.26 0.88,3.26 0,0 -6.48,1.75 -6.48,1.75 0,0 2.97,10.11 2.97,10.11 0,0 15.96,-5.18 15.96,-5.18 0,0 -5.22,-18.88 -5.22,-18.88 0,0 -3.26,0.8 -3.26,0.8 0,0 4.36,16 4.36,16 0,0 -9.65,2.87 -9.65,2.87 0,0 -0.96,-3.23 -0.96,-3.23 0,0 6.43,-1.91 6.43,-1.91 0,0 -2.65,-9.69 -2.65,-9.69 0,0 -16.31,3.98 -16.31,3.98 0,0 17.1,50.36 17.1,50.36 0,0 0,0 0,0l0 0zm-17.9 -53.64c0,0 19.57,-4.77 19.57,-4.77 0,0 0.01,0.03 0.01,0.03 0,0 3.26,-0.8 3.26,-0.8 0,0 -0.81,-3.3 -0.81,-3.3 0,0 -19.57,4.77 -19.57,4.77 0,0 -7.5,-44.99 -7.5,-44.99 0,0 10.03,-0.89 10.03,-0.89 0,0 0.38,3.4 0.38,3.4 0,0 -6.68,0.76 -6.68,0.76 0,0 1.29,10.25 1.29,10.25 0,0 16.63,-2.32 16.63,-2.32 0,0 -2.18,-19.67 -2.18,-19.67 0,0 -3.34,0.29 -3.34,0.29 0,0 1.72,16.5 1.72,16.5 0,0 -9.97,1.4 -9.97,1.4 0,0 -0.43,-3.48 -0.43,-3.48 0,0 6.67,-0.76 6.67,-0.76 0,0 -1.04,-10.03 -1.04,-10.03 0,0 -16.72,1.49 -16.72,1.49 0,0 8.68,52.12 8.68,52.12 0,0 0,0 0,0l0 0zm-8.98 -55.49c0,0 20.06,-1.78 20.06,-1.78 0,0 0.01,0.03 0.01,0.03 0,0 3.34,-0.29 3.34,-0.29 0,0 -0.23,-3.19 -0.23,-3.19 0,0 -20.1,1.28 -20.1,1.28 0,0 -0.21,-45.31 -0.21,-45.31 0,0 10.05,0.62 10.05,0.62 0,0 -0.2,3.37 -0.2,3.37 0,0 -6.71,-0.41 -6.71,-0.41 0,0 -0.36,10.53 -0.36,10.53 0,0 16.79,0.21 16.79,0.21 0,0 0.99,-19.57 0.99,-19.57 0,0 -3.35,-0.29 -3.35,-0.29 0,0 -0.91,16.57 -0.91,16.57 0,0 -10.07,-0.38 -10.07,-0.38 0,0 0.13,-3.37 0.13,-3.37 0,0 6.71,0.25 6.71,0.25 0,0 0.54,-10.07 0.54,-10.07 0,0 -16.75,-1.04 -16.75,-1.04 0,0 0.27,52.84 0.27,52.84 0,0 0,0 0,0l0 0zm0.02 -56.57c0,0 20.07,1.74 20.07,1.74 0,0 -0.01,0.03 -0.01,0.03 0,0 3.35,0.29 3.35,0.29 0,0 0.29,-3.39 0.29,-3.39 0,0 -20.07,-1.74 -20.07,-1.74 0,0 7.01,-44.74 7.01,-44.74 0,0 9.86,2.09 9.86,2.09 0,0 -0.71,3.31 -0.71,3.31 0,0 -6.57,-1.4 -6.57,-1.4 0,0 -2.01,10.13 -2.01,10.13 0,0 16.5,3.09 16.5,3.09 0,0 4.15,-19.37 4.15,-19.37 0,0 -3.27,-0.78 -3.27,-0.78 0,0 -3.56,16.21 -3.56,16.21 0,0 -9.9,-1.85 -9.9,-1.85 0,0 0.68,-3.43 0.68,-3.43 0,0 6.56,1.39 6.56,1.39 0,0 2.18,-9.84 2.18,-9.84 0,0 -16.33,-3.89 -16.33,-3.89 0,0 -8.22,52.15 -8.22,52.15 0,0 0,0 0,0l0 0zm9 -55.43c0,0 19.6,4.67 19.6,4.67 0,0 -0.01,0.02 -0.01,0.02 0,0 3.27,0.78 3.27,0.78 0,0 0.78,-3.1 0.78,-3.1 0,0 -19.47,-5.15 -19.47,-5.15 0,0 14.13,-43 14.13,-43 0,0 9.36,3.73 9.36,3.73 0,0 -1.26,3.14 -1.26,3.14 0,0 -6.23,-2.5 -6.23,-2.5 0,0 -3.7,9.87 -3.7,9.87 0,0 15.88,5.46 15.88,5.46 0,0 7.15,-18.24 7.15,-18.24 0,0 -3.08,-1.33 -3.08,-1.33 0,0 -6.13,15.43 -6.13,15.43 0,0 -9.44,-3.51 -9.44,-3.51 0,0 1.18,-3.16 1.18,-3.16 0,0 6.29,2.34 6.29,2.34 0,0 3.71,-9.38 3.71,-9.38 0,0 -15.59,-6.23 -15.59,-6.23 0,0 -16.44,50.16 -16.44,50.16 0,0 0,0 0,0l0 0zm17.91 -53.6c0,0 18.52,7.93 18.52,7.93 0,0 -0.01,0.02 -0.01,0.02 0,0 3.08,1.33 3.08,1.33 0,0 1.34,-3.13 1.34,-3.13 0,0 -18.51,-7.93 -18.51,-7.93 0,0 20.98,-40.45 20.98,-40.45 0,0 8.58,5.27 8.58,5.27 0,0 -1.75,2.94 -1.75,2.94 0,0 -5.81,-3.38 -5.81,-3.38 0,0 -5.11,8.98 -5.11,8.98 0,0 14.71,8.08 14.71,8.08 0,0 9.95,-16.89 9.95,-16.89 0,0 -2.82,-1.83 -2.82,-1.83 0,0 -8.45,14.14 -8.45,14.14 0,0 -8.82,-4.84 -8.82,-4.84 0,0 1.75,-3.03 1.75,-3.03 0,0 5.8,3.37 5.8,3.37 0,0 5.18,-8.65 5.18,-8.65 0,0 -14.3,-8.79 -14.3,-8.79 0,0 -24.31,46.86 -24.31,46.86 0,0 0,0 0,0l0 0zm26.27 -50.05c0,0 16.9,10.96 16.9,10.96 0,0 -0.02,0.03 -0.02,0.03 0,0 2.82,1.83 2.82,1.83 0,0 1.85,-2.86 1.85,-2.86 0,0 -16.89,-10.96 -16.89,-10.96 0,0 27.03,-36.34 27.03,-36.34 0,0 7.71,6.47 7.71,6.47 0,0 -2.17,2.59 -2.17,2.59 0,0 -5.14,-4.32 -5.14,-4.32 0,0 -6.51,8.03 -6.51,8.03 0,0 13.11,10.47 13.11,10.47 0,0 12.7,-15.2 12.7,-15.2 0,0 -2.52,-2.22 -2.52,-2.22 0,0 -10.69,12.69 -10.69,12.69 0,0 -7.87,-6.29 -7.87,-6.29 0,0 2.11,-2.63 2.11,-2.63 0,0 5.24,4.19 5.24,4.19 0,0 6.48,-7.68 6.48,-7.68 0,0 -12.58,-11.1 -12.58,-11.1 0,0 -31.55,42.34 -31.55,42.34 0,0 0,0 0,0l-0.01 0zm33.79 -44.87c0,0 15.1,13.32 15.1,13.32 0,0 -0.02,0.03 -0.02,0.03 0,0 2.52,2.22 2.52,2.22 0,0 2.25,-2.55 2.25,-2.55 0,0 -15.1,-13.33 -15.1,-13.33 0,0 32.74,-31.73 32.74,-31.73 0,0 6.48,7.7 6.48,7.7 0,0 -2.59,2.22 -2.59,2.22 0,0 -4.45,-5.02 -4.45,-5.02 0,0 -7.69,6.89 -7.69,6.89 0,0 11.42,12.3 11.42,12.3 0,0 14.79,-12.86 14.79,-12.86 0,0 -2.1,-2.62 -2.1,-2.62 0,0 -12.59,10.81 -12.59,10.81 0,0 -6.67,-7.54 -6.67,-7.54 0,0 2.53,-2.24 2.53,-2.24 0,0 4.45,5.03 4.45,5.03 0,0 7.65,-6.57 7.65,-6.57 0,0 -10.8,-12.84 -10.8,-12.84 0,0 -37.92,36.78 -37.92,36.78 0,0 0,0 0,0l0 0zm40.8 -39.18c0,0 12.58,15.73 12.58,15.73 0,0 -0.03,0.02 -0.03,0.02 0,0 2.1,2.62 2.1,2.62 0,0 2.66,-2.13 2.66,-2.13 0,0 -12.57,-15.73 -12.57,-15.73 0,0 37.14,-25.91 37.14,-25.91 0,0 5.28,8.57 5.28,8.57 0,0 -2.88,1.77 -2.88,1.77 0,0 -3.52,-5.72 -3.52,-5.72 0,0 -8.71,5.56 -8.71,5.56 0,0 9.14,14.07 9.14,14.07 0,0 16.86,-10.41 16.86,-10.41 0,0 -1.69,-2.9 -1.69,-2.9 0,0 -14.16,8.65 -14.16,8.65 0,0 -5.49,-8.44 -5.49,-8.44 0,0 2.83,-1.84 2.83,-1.84 0,0 3.66,5.63 3.66,5.63 0,0 8.58,-5.22 8.58,-5.22 0,0 -8.44,-14.5 -8.44,-14.5 0,0 -43.34,30.18 -43.34,30.18 0,0 0,0 0,0l0 0zm46.26 -31.88c0,0 10.13,17.4 10.13,17.4 0,0 -0.03,0.02 -0.03,0.02 0,0 1.69,2.9 1.69,2.9 0,0 2.77,-1.6 2.77,-1.6 0,0 -9.7,-17.65 -9.7,-17.65 0,0 40.84,-19.58 40.84,-19.58 0,0 3.74,9.34 3.74,9.34 0,0 -3.14,1.26 -3.14,1.26 0,0 -2.49,-6.23 -2.49,-6.23 0,0 -9.67,4.19 -9.67,4.19 0,0 6.99,15.25 6.99,15.25 0,0 18.12,-7.5 18.12,-7.5 0,0 -1.17,-3.14 -1.17,-3.14 0,0 -15.38,6.27 -15.38,6.27 0,0 -3.97,-9.25 -3.97,-9.25 0,0 3.11,-1.33 3.11,-1.33 0,0 2.64,6.17 2.64,6.17 0,0 9.34,-3.82 9.34,-3.82 0,0 -6.24,-15.58 -6.24,-15.58 0,0 -47.58,22.88 -47.58,22.88 0,0 0,0 0,0l0 0zm51.08 -24.22c0,0 7.02,18.87 7.02,18.87 0,0 -0.02,0.01 -0.02,0.01 0,0 1.17,3.14 1.17,3.14 0,0 3.19,-1.19 3.19,-1.19 0,0 -7.02,-18.87 -7.02,-18.87 0,0 43.71,-12.9 43.71,-12.9 0,0 2.1,9.84 2.1,9.84 0,0 -3.33,0.79 -3.33,0.79 0,0 -1.55,-6.53 -1.55,-6.53 0,0 -10.03,2.52 -10.03,2.52 0,0 4.29,16.22 4.29,16.22 0,0 19.29,-4.55 19.29,-4.55 0,0 -0.7,-3.28 -0.7,-3.28 0,0 -16.18,3.73 -16.18,3.73 0,0 -2.57,-9.73 -2.57,-9.73 0,0 3.39,-0.86 3.39,-0.86 0,0 1.56,6.53 1.56,6.53 0,0 9.83,-2.26 9.83,-2.26 0,0 -3.49,-16.41 -3.49,-16.41 0,0 -50.66,14.93 -50.66,14.93 0,0 0,0 0,0l0 0zm53.96 -15.63c0,0 4.19,19.69 4.19,19.69 0,0 -0.03,0.01 -0.03,0.01 0,0 0.7,3.28 0.7,3.28 0,0 3.14,-0.62 3.14,-0.62 0,0 -3.71,-19.79 -3.71,-19.79 0,0 44.95,-5.67 44.95,-5.67 0,0 0.63,10.05 0.63,10.05 0,0 -3.37,0.21 -3.37,0.21 0,0 -0.42,-6.7 -0.42,-6.7 0,0 -10.5,0.89 -10.5,0.89 0,0 1.86,16.67 1.86,16.67 0,0 19.56,-1.36 19.56,-1.36 0,0 -0.13,-3.35 -0.13,-3.35 0,0 -16.56,1.09 -16.56,1.09 0,0 -0.87,-10.03 -0.87,-10.03 0,0 3.36,-0.29 3.36,-0.29 0,0 0.58,6.68 0.58,6.68 0,0 10.07,-0.67 10.07,-0.67 0,0 -1.04,-16.75 -1.04,-16.75 0,0 -52.41,6.66 -52.41,6.66 0,0 0,0 0,0l0 0zm56.15 -6.81c0,0 0.75,20.12 0.75,20.12 0,0 -0.03,0 -0.03,0 0,0 0.13,3.35 0.13,3.35 0,0 3.4,-0.12 3.4,-0.12 0,0 -0.75,-20.12 -0.75,-20.12 0,0 45.58,1.6 45.58,1.6 0,0 -1.12,10 -1.12,10 0,0 -3.4,-0.31 -3.4,-0.31 0,0 0.58,-6.69 0.58,-6.69 0,0 -10.31,-0.77 -10.31,-0.77 0,0 -1.04,16.74 -1.04,16.74 0,0 19.73,1.78 19.73,1.78 0,0 0.38,-3.33 0.38,-3.33 0,0 -16.53,-1.59 -16.53,-1.59 0,0 0.62,-10.04 0.62,-10.04 0,0 3.5,0.27 3.5,0.27 0,0 -0.59,6.68 -0.59,6.68 0,0 10.04,0.97 10.04,0.97 0,0 1.87,-16.67 1.87,-16.67 0,0 -52.81,-1.87 -52.81,-1.87 0,0 0,0 0,0l0 0zm56.16 2.24c0,0 -2.23,20.01 -2.23,20.01 0,0 -0.03,0 -0.03,0 0,0 -0.38,3.33 -0.38,3.33 0,0 3.18,0.41 3.18,0.41 0,0 2.73,-19.94 2.73,-19.94 0,0 44.43,8.84 44.43,8.84 0,0 -2.58,9.73 -2.58,9.73 0,0 -3.26,-0.87 -3.26,-0.87 0,0 1.71,-6.48 1.71,-6.48 0,0 -10.24,-2.49 -10.24,-2.49 0,0 -3.49,16.41 -3.49,16.41 0,0 18.98,4.91 18.98,4.91 0,0 0.94,-3.22 0.94,-3.22 0,0 -16.06,-4.22 -16.06,-4.22 0,0 2.34,-9.79 2.34,-9.79 0,0 3.28,0.78 3.28,0.78 0,0 -1.55,6.53 -1.55,6.53 0,0 9.71,2.54 9.71,2.54 0,0 4.69,-16.11 4.69,-16.11 0,0 -52.17,-10.37 -52.17,-10.37 0,0 0,0 0,0l0 0zm55.41 11.31c0,0 -5.62,19.34 -5.62,19.34 0,0 -0.03,-0.01 -0.03,-0.01 0,0 -0.94,3.22 -0.94,3.22 0,0 3.28,0.95 3.28,0.95 0,0 5.62,-19.33 5.62,-19.33 0,0 42.7,15.95 42.7,15.95 0,0 -4.19,9.15 -4.19,9.15 0,0 -3.13,-1.39 -3.13,-1.39 0,0 2.65,-6.17 2.65,-6.17 0,0 -9.53,-3.99 -9.53,-3.99 0,0 -6.24,15.58 -6.24,15.58 0,0 17.98,7.84 17.98,7.84 0,0 1.47,-3.01 1.47,-3.01 0,0 -15.18,-6.74 -15.18,-6.74 0,0 3.97,-9.25 3.97,-9.25 0,0 3.1,1.33 3.1,1.33 0,0 -2.64,6.16 -2.64,6.16 0,0 9.22,4.09 9.22,4.09 0,0 6.98,-15.25 6.98,-15.25 0,0 -49.46,-18.46 -49.46,-18.46 0,0 0,0 0,0l-0.01 -0.01zm52.87 20.04c0,0 -8.83,18.1 -8.83,18.1 0,0 -0.02,-0.01 -0.02,-0.01 0,0 -1.47,3.01 -1.47,3.01 0,0 3.06,1.49 3.06,1.49 0,0 8.83,-18.09 8.83,-18.09 0,0 39.35,22.42 39.35,22.42 0,0 -5.49,8.45 -5.49,8.45 0,0 -2.83,-1.84 -2.83,-1.84 0,0 3.65,-5.63 3.65,-5.63 0,0 -8.75,-5.49 -8.75,-5.49 0,0 -8.8,14.3 -8.8,14.3 0,0 16.64,10.75 16.64,10.75 0,0 1.9,-2.77 1.9,-2.77 0,0 -13.9,-9.07 -13.9,-9.07 0,0 5.28,-8.58 5.28,-8.58 0,0 2.98,1.84 2.98,1.84 0,0 -3.66,5.63 -3.66,5.63 0,0 8.43,5.53 8.43,5.53 0,0 9.49,-13.85 9.49,-13.85 0,0 -45.86,-26.19 -45.86,-26.19 0,0 0,0 0,0l0 0zm48.64 28.1c0,0 -11.38,16.61 -11.38,16.61 0,0 -0.02,-0.02 -0.02,-0.02 0,0 -1.9,2.77 -1.9,2.77 0,0 2.63,1.82 2.63,1.82 0,0 11.79,-16.33 11.79,-16.33 0,0 35.22,28.49 35.22,28.49 0,0 -6.85,7.38 -6.85,7.38 0,0 -2.51,-2.32 -2.51,-2.32 0,0 4.45,-5.03 4.45,-5.03 0,0 -7.79,-6.8 -7.79,-6.8 0,0 -10.8,12.84 -10.8,12.84 0,0 14.55,13.14 14.55,13.14 0,0 2.34,-2.4 2.34,-2.4 0,0 -12.26,-11.19 -12.26,-11.19 0,0 6.67,-7.55 6.67,-7.55 0,0 2.53,2.24 2.53,2.24 0,0 -4.44,5.03 -4.44,5.03 0,0 7.45,6.79 7.45,6.79 0,0 11.42,-12.29 11.42,-12.29 0,0 -41.1,-33.18 -41.1,-33.18 0,0 0,0 0,0l0 0zm43.82 35.76c0,0 -14.07,14.41 -14.07,14.41 0,0 -0.02,-0.02 -0.02,-0.02 0,0 -2.34,2.4 -2.34,2.4 0,0 2.43,2.38 2.43,2.38 0,0 14.07,-14.41 14.07,-14.41 0,0 30.24,33.73 30.24,33.73 0,0 -7.87,6.28 -7.87,6.28 0,0 -2.11,-2.63 -2.11,-2.63 0,0 5.25,-4.19 5.25,-4.19 0,0 -6.57,-7.98 -6.57,-7.98 0,0 -12.86,10.8 -12.86,10.8 0,0 12.38,15.46 12.38,15.46 0,0 2.67,-2.03 2.67,-2.03 0,0 -10.3,-13.01 -10.3,-13.01 0,0 7.71,-6.47 7.71,-6.47 0,0 2.24,2.69 2.24,2.69 0,0 -5.25,4.18 -5.25,4.18 0,0 6.25,7.92 6.25,7.92 0,0 13.37,-10.15 13.37,-10.15 0,0 -35.22,-39.36 -35.22,-39.36 0,0 0,0 0,0l0 0zm37.26 42.05c0,0 -16.04,12.18 -16.04,12.18 0,0 -0.02,-0.03 -0.02,-0.03 0,0 -2.67,2.03 -2.67,2.03 0,0 1.91,2.56 1.91,2.56 0,0 16.34,-11.78 16.34,-11.78 0,0 24.38,38.16 24.38,38.16 0,0 -8.82,4.85 -8.82,4.85 0,0 -1.63,-2.96 -1.63,-2.96 0,0 5.89,-3.23 5.89,-3.23 0,0 -5.33,-9.09 -5.33,-9.09 0,0 -14.3,8.79 -14.3,8.79 0,0 9.63,17.07 9.63,17.07 0,0 2.98,-1.54 2.98,-1.54 0,0 -8.08,-14.5 -8.08,-14.5 0,0 8.71,-5.06 8.71,-5.06 0,0 1.69,2.92 1.69,2.92 0,0 -5.8,3.37 -5.8,3.37 0,0 4.92,8.8 4.92,8.8 0,0 14.71,-8.08 14.71,-8.08 0,0 -28.47,-44.46 -28.47,-44.46 0,0 0,0 0,0l0 0zm30.22 47.77c0,0 -17.88,9.26 -17.88,9.26 0,0 -0.02,-0.02 -0.02,-0.02 0,0 -2.98,1.54 -2.98,1.54 0,0 1.57,3.02 1.57,3.02 0,0 17.88,-9.26 17.88,-9.26 0,0 18.09,41.82 18.09,41.82 0,0 -9.53,3.28 -9.53,3.28 0,0 -1.18,-3.21 -1.18,-3.21 0,0 6.3,-2.34 6.3,-2.34 0,0 -3.72,-9.64 -3.72,-9.64 0,0 -15.58,6.23 -15.58,6.23 0,0 6.85,18.59 6.85,18.59 0,0 3.17,-1.1 3.17,-1.1 0,0 -5.65,-15.6 -5.65,-15.6 0,0 9.35,-3.74 9.35,-3.74 0,0 1.25,3.27 1.25,3.27 0,0 -6.29,2.34 -6.29,2.34 0,0 3.43,9.48 3.43,9.48 0,0 15.87,-5.46 15.87,-5.46 0,0 -20.93,-48.46 -20.93,-48.46 0,0 0,0 0,0l0 0zm22.03 51.65c0,0 -19.05,6.55 -19.05,6.55 0,0 -0.01,-0.02 -0.01,-0.02 0,0 -3.17,1.09 -3.17,1.09 0,0 0.99,3.04 0.99,3.04 0,0 19.2,-6.09 19.2,-6.09 0,0 11.06,43.9 11.06,43.9 0,0 -9.9,1.86 -9.9,1.86 0,0 -0.63,-3.32 -0.63,-3.32 0,0 6.6,-1.24 6.6,-1.24 0,0 -2.09,-10.11 -2.09,-10.11 0,0 -16.42,3.49 -16.42,3.49 0,0 3.74,19.45 3.74,19.45 0,0 3.32,-0.54 3.32,-0.54 0,0 -3.08,-16.31 -3.08,-16.31 0,0 9.85,-2.09 9.85,-2.09 0,0 0.71,3.3 0.71,3.3 0,0 -6.57,1.4 -6.57,1.4 0,0 1.87,9.86 1.87,9.86 0,0 16.57,-2.68 16.57,-2.68 0,0 -12.99,-51.54 -12.99,-51.54 0,0 0,0 0,0l0 0zm13.53 54.87c0,0 -19.89,3.22 -19.89,3.22 0,0 0,-0.03 0,-0.03 0,0 -3.32,0.54 -3.32,0.54 0,0 0.55,3.36 0.55,3.36 0,0 19.88,-3.22 19.88,-3.22 0,0 3.89,45.41 3.89,45.41 0,0 -10.07,0.13 -10.07,0.13 0,0 -0.09,-3.42 -0.09,-3.42 0,0 6.71,-0.25 6.71,-0.25 0,0 -0.47,-10.32 -0.47,-10.32 0,0 -16.76,1.04 -16.76,1.04 0,0 0.62,19.79 0.62,19.79 0,0 3.36,-0.04 3.36,-0.04 0,0 -0.42,-16.59 -0.42,-16.59 0,0 10.05,-0.62 10.05,-0.62 0,0 0.14,3.49 0.14,3.49 0,0 -6.71,0.25 -6.71,0.25 0,0 0.25,10.08 0.25,10.08 0,0 16.79,-0.21 16.79,-0.21 0,0 -4.51,-52.61 -4.51,-52.61 0,0 0,0 0,0l0 0zm-2.25 63.03c0,0 -20.14,-0.25 -20.14,-0.25 0,0 0.08,-6.78 0.08,-6.78 0,0 -3.35,-0.04 -3.35,-0.04 0,0 -0.17,9.78 -0.17,9.78 0,0 20.14,0.74 20.14,0.74 0,0 -0.96,17.1 -0.96,17.1 0,0 -10.03,-0.87 -10.03,-0.87 0,0 0.25,-3.24 0.25,-3.24 0,0 6.7,0.41 6.7,0.41 0,0 0.55,-10.15 0.55,-10.15 0,0 -16.77,-0.62 -16.77,-0.62 0,0 -3.89,38.38 -3.89,38.38 0,0 3.32,0.54 3.32,0.54 0,0 3.81,-35.72 3.81,-35.72 0,0 10.05,0.63 10.05,0.63 0,0 -0.21,3.36 -0.21,3.36 0,0 -6.7,-0.41 -6.7,-0.41 0,0 -0.75,9.89 -0.75,9.89 0,0 16.73,1.45 16.73,1.45 0,0 1.34,-24.2 1.34,-24.2 0,0 0,0 0,0l0 0zm-5.58 55.1c0,0 -19.8,-3.71 -19.8,-3.71 0,0 1.11,-6.39 1.11,-6.39 0,0 -3.32,-0.54 -3.32,-0.54 0,0 -1.71,9.63 -1.71,9.63 0,0 19.8,3.71 19.8,3.71 0,0 -3.67,16.71 -3.67,16.71 0,0 -9.8,-2.33 -9.8,-2.33 0,0 0.78,-3.28 0.78,-3.28 0,0 6.53,1.55 6.53,1.55 0,0 2.2,-9.92 2.2,-9.92 0,0 -16.42,-3.49 -16.42,-3.49 0,0 -9.98,37.28 -9.98,37.28 0,0 3.18,1.1 3.18,1.1 0,0 9.38,-34.38 9.38,-34.38 0,0 9.85,2.09 9.85,2.09 0,0 -0.7,3.3 -0.7,3.3 0,0 -6.57,-1.39 -6.57,-1.39 0,0 -2.29,9.43 -2.29,9.43 0,0 16.23,4.29 16.23,4.29 0,0 5.2,-23.66 5.2,-23.66 0,0 0,0 0,0l0 0zm-14.27 53.28c0,0 -19.04,-6.55 -19.04,-6.55 0,0 2.21,-6.41 2.21,-6.41 0,0 -3.18,-1.1 -3.18,-1.1 0,0 -3.25,9.24 -3.25,9.24 0,0 18.88,7.01 18.88,7.01 0,0 -6.32,15.91 -6.32,15.91 0,0 -9.26,-3.96 -9.26,-3.96 0,0 1.34,-3.1 1.34,-3.1 0,0 6.17,2.64 6.17,2.64 0,0 3.75,-9.49 3.75,-9.49 0,0 -15.74,-5.85 -15.74,-5.85 0,0 -15.86,35.19 -15.86,35.19 0,0 2.98,1.54 2.98,1.54 0,0 14.92,-32.68 14.92,-32.68 0,0 9.35,3.74 9.35,3.74 0,0 -1.25,3.13 -1.25,3.13 0,0 -6.23,-2.49 -6.23,-2.49 0,0 -3.84,9.15 -3.84,9.15 0,0 15.43,6.61 15.43,6.61 0,0 8.94,-22.53 8.94,-22.53 0,0 0,0 0,0l0 0zm-22.75 50.49c0,0 -17.65,-9.7 -17.65,-9.7 0,0 3.08,-5.72 3.08,-5.72 0,0 -2.98,-1.54 -2.98,-1.54 0,0 -4.67,8.6 -4.67,8.6 0,0 17.65,9.7 17.65,9.7 0,0 -8.85,14.8 -8.85,14.8 0,0 -8.44,-5.48 -8.44,-5.48 0,0 1.7,-2.77 1.7,-2.77 0,0 5.72,3.51 5.72,3.51 0,0 5.22,-8.72 5.22,-8.72 0,0 -14.51,-8.44 -14.51,-8.44 0,0 -21.28,32.2 -21.28,32.2 0,0 2.67,2.03 2.67,2.03 0,0 19.81,-29.62 19.81,-29.62 0,0 8.71,5.06 8.71,5.06 0,0 -1.71,2.86 -1.71,2.86 0,0 -5.72,-3.52 -5.72,-3.52 0,0 -5.27,8.41 -5.27,8.41 0,0 14.08,9.13 14.08,9.13 0,0 12.44,-20.79 12.44,-20.79 0,0 0,0 0,0l0 0zm-30.54 46.19c0,0 -15.74,-12.57 -15.74,-12.57 0,0 3.94,-5.15 3.94,-5.15 0,0 -2.67,-2.03 -2.67,-2.03 0,0 -6,7.73 -6,7.73 0,0 15.74,12.56 15.74,12.56 0,0 -11.04,13.1 -11.04,13.1 0,0 -7.55,-6.67 -7.55,-6.67 0,0 2.24,-2.52 2.24,-2.52 0,0 5.03,4.44 5.03,4.44 0,0 6.59,-7.8 6.59,-7.8 0,0 -13.12,-10.48 -13.12,-10.48 0,0 -26.19,28.33 -26.19,28.33 0,0 2.34,2.41 2.34,2.41 0,0 24.5,-26.27 24.5,-26.27 0,0 7.71,6.47 7.71,6.47 0,0 -2.18,2.59 -2.18,2.59 0,0 -5.14,-4.32 -5.14,-4.32 0,0 -6.53,7.46 -6.53,7.46 0,0 12.58,11.11 12.58,11.11 0,0 15.49,-18.39 15.49,-18.39 0,0 0,0 0,0l0 0zm-37.46 40.54c0,0 -13.7,-14.75 -13.7,-14.75 0,0 4.73,-4.44 4.73,-4.44 0,0 -2.34,-2.41 -2.34,-2.41 0,0 -6.88,6.43 -6.88,6.43 0,0 13.34,15.09 13.34,15.09 0,0 -13,11.15 -13,11.15 0,0 -6.29,-7.87 -6.29,-7.87 0,0 2.5,-2.08 2.5,-2.08 0,0 4.32,5.14 4.32,5.14 0,0 7.71,-6.63 7.71,-6.63 0,0 -11.11,-12.57 -11.11,-12.57 0,0 -30.38,23.8 -30.38,23.8 0,0 1.89,2.77 1.89,2.77 0,0 28.18,-21.82 28.18,-21.82 0,0 6.67,7.54 6.67,7.54 0,0 -2.53,2.17 -2.53,2.17 0,0 -4.32,-5.14 -4.32,-5.14 0,0 -7.66,6.31 -7.66,6.31 0,0 10.48,13.11 10.48,13.11 0,0 18.39,-15.8 18.39,-15.8 0,0 0,0 0,0l0 0zm-43.61 34.15c0,0 -10.97,-16.88 -10.97,-16.88 0,0 5.37,-3.64 5.37,-3.64 0,0 -1.89,-2.77 -1.89,-2.77 0,0 -8.14,5.43 -8.14,5.43 0,0 10.97,16.89 10.97,16.89 0,0 -14.62,8.93 -14.62,8.93 0,0 -5.06,-8.71 -5.06,-8.71 0,0 2.92,-1.69 2.92,-1.69 0,0 3.37,5.8 3.37,5.8 0,0 8.73,-5.31 8.73,-5.31 0,0 -9.15,-14.07 -9.15,-14.07 0,0 -33.84,18.59 -33.84,18.59 0,0 1.47,3.02 1.47,3.02 0,0 31.57,-17.18 31.57,-17.18 0,0 5.28,8.57 5.28,8.57 0,0 -2.88,1.77 -2.88,1.77 0,0 -3.52,-5.71 -3.52,-5.71 0,0 -8.38,4.9 -8.38,4.9 0,0 8.08,14.7 8.08,14.7 0,0 20.69,-12.64 20.69,-12.64 0,0 0,0 0,0l0 0zm-48.36 26.61c0,0 -8.38,-18.31 -8.38,-18.31 0,0 5.9,-2.71 5.9,-2.71 0,0 -1.47,-3.02 -1.47,-3.02 0,0 -8.58,3.9 -8.58,3.9 0,0 7.94,18.51 7.94,18.51 0,0 -15.86,6.46 -15.86,6.46 0,0 -3.51,-9.43 -3.51,-9.43 0,0 3.04,-1.17 3.04,-1.17 0,0 2.49,6.23 2.49,6.23 0,0 9.41,-3.85 9.41,-3.85 0,0 -6.61,-15.42 -6.61,-15.42 0,0 -36.38,12.95 -36.38,12.95 0,0 0.94,3.23 0.94,3.23 0,0 33.92,-11.87 33.92,-11.87 0,0 3.74,9.34 3.74,9.34 0,0 -3.13,1.25 -3.13,1.25 0,0 -2.49,-6.23 -2.49,-6.23 0,0 -9.27,3.57 -9.27,3.57 0,0 5.86,15.72 5.86,15.72 0,0 22.44,-9.15 22.44,-9.15 0,0 0,0 0,0l0 0zm-52.18 18.57c0,0 -5.15,-19.46 -5.15,-19.46 0,0 6.26,-1.74 6.26,-1.74 0,0 -0.94,-3.23 -0.94,-3.23 0,0 -9.44,2.59 -9.44,2.59 0,0 5.15,19.46 5.15,19.46 0,0 -16.69,3.85 -16.69,3.85 0,0 -2.1,-9.85 -2.1,-9.85 0,0 3.31,-0.7 3.31,-0.7 0,0 1.39,6.57 1.39,6.57 0,0 9.92,-2.28 9.92,-2.28 0,0 -3.9,-16.32 -3.9,-16.32 0,0 -37.97,6.98 -37.97,6.98 0,0 0.37,3.33 0.37,3.33 0,0 35.1,-6.26 35.1,-6.26 0,0 2.33,9.79 2.33,9.79 0,0 -3.24,0.77 -3.24,0.77 0,0 -1.4,-6.56 -1.4,-6.56 0,0 -9.71,2.02 -9.71,2.02 0,0 3.08,16.49 3.08,16.49 0,0 23.63,-5.45 23.63,-5.45 0,0 0,0 0,0l0 0zm-54.29 9.96c0,0 -2.24,-20.01 -2.24,-20.01 0,0 6.74,-0.75 6.74,-0.75 0,0 -0.37,-3.33 -0.37,-3.33 0,0 -9.74,1.02 -9.74,1.02 0,0 1.75,20.06 1.75,20.06 0,0 -17.1,1.11 -17.1,1.11 0,0 -0.37,-10.06 -0.37,-10.06 0,0 3.25,-0.12 3.25,-0.12 0,0 0.42,6.69 0.42,6.69 0,0 10.14,-0.68 10.14,-0.68 0,0 -1.45,-16.71 -1.45,-16.71 0,0 -38.57,0.76 -38.57,0.76 0,0 -0.13,3.35 -0.13,3.35 0,0 35.91,-0.53 35.91,-0.53 0,0 0.63,10.05 0.63,10.05 0,0 -3.37,0.21 -3.37,0.21 0,0 -0.42,-6.7 -0.42,-6.7 0,0 -9.91,0.45 -9.91,0.45 0,0 0.63,16.77 0.63,16.77 0,0 24.2,-1.58 24.2,-1.58 0,0 0,0 0,0l0 0zm-55.42 1.11c0,0 1.27,-20.1 1.27,-20.1 0,0 6.48,0.32 6.48,0.32 0,0 0.13,-3.35 0.13,-3.35 0,0 -9.76,-0.53 -9.76,-0.53 0,0 -1.28,20.1 -1.28,20.1 0,0 -17.06,-1.62 -17.06,-1.62 0,0 1.15,-10 1.15,-10 0,0 3.35,0.38 3.35,0.38 0,0 -0.76,6.67 -0.76,6.67 0,0 10.12,0.97 10.12,0.97 0,0 1.49,-16.71 1.49,-16.71 0,0 -38.56,-5.42 -38.56,-5.42 0,0 -0.64,3.29 -0.64,3.29 0,0 35.54,5.17 35.54,5.17 0,0 -0.89,10.03 -0.89,10.03 0,0 -3.37,-0.3 -3.37,-0.3 0,0 0.6,-6.68 0.6,-6.68 0,0 -9.64,-1.12 -9.64,-1.12 0,0 -2.33,16.61 -2.33,16.61 0,0 24.16,2.29 24.16,2.29 0,0 0,0 0,0l0 0zm-54.69 -7.7c0,0 4.28,-19.67 4.28,-19.67 0,0 6.34,1.37 6.34,1.37 0,0 0.64,-3.29 0.64,-3.29 0,0 -9.19,-2.02 -9.19,-2.02 0,0 -4.77,19.56 -4.77,19.56 0,0 -16.58,-4.35 -16.58,-4.35 0,0 2.88,-9.65 2.88,-9.65 0,0 3.12,0.89 3.12,0.89 0,0 -1.75,6.48 -1.75,6.48 0,0 9.84,2.57 9.84,2.57 0,0 3.98,-16.3 3.98,-16.3 0,0 -36.84,-11.47 -36.84,-11.47 0,0 -1.2,3.14 -1.2,3.14 0,0 33.96,10.79 33.96,10.79 0,0 -2.38,9.78 -2.38,9.78 0,0 -3.22,-0.87 -3.22,-0.87 0,0 1.75,-6.48 1.75,-6.48 0,0 -9.54,-2.7 -9.54,-2.7 0,0 -4.79,16.08 -4.79,16.08 0,0 23.47,6.14 23.47,6.14 0,0 0,0 0,0l0 0zm-52.92 -16.46c0,0 7.62,-18.64 7.62,-18.64 0,0 6.05,2.36 6.05,2.36 0,0 1.2,-3.14 1.2,-3.14 0,0 -9.1,-3.61 -9.1,-3.61 0,0 -7.62,18.64 -7.62,18.64 0,0 -15.65,-6.95 -15.65,-6.95 0,0 4.26,-9.12 4.26,-9.12 0,0 3.06,1.43 3.06,1.43 0,0 -2.84,6.08 -2.84,6.08 0,0 9.28,4.14 9.28,4.14 0,0 6.73,-15.37 6.73,-15.37 0,0 -34.55,-17.26 -34.55,-17.26 0,0 -1.71,2.89 -1.71,2.89 0,0 31.82,16.09 31.82,16.09 0,0 -4.03,9.22 -4.03,9.22 0,0 -3.1,-1.35 -3.1,-1.35 0,0 2.69,-6.15 2.69,-6.15 0,0 -8.79,-4.14 -8.79,-4.14 0,0 -7.47,15.03 -7.47,15.03 0,0 22.15,9.84 22.15,9.84 0,0 0,0 0,0l0 0.01zm-49.36 -24.67c0,0 10.25,-17.33 10.25,-17.33 0,0 5.84,3.45 5.84,3.45 0,0 1.71,-2.89 1.71,-2.89 0,0 -8.4,-5.04 -8.4,-5.04 0,0 -10.66,17.08 -10.66,17.08 0,0 -14.32,-9.38 -14.32,-9.38 0,0 5.73,-8.27 5.73,-8.27 0,0 2.78,1.92 2.78,1.92 0,0 -3.83,5.51 -3.83,5.51 0,0 8.55,5.58 8.55,5.58 0,0 8.89,-14.23 8.89,-14.23 0,0 -31.34,-22.61 -31.34,-22.61 0,0 -2.1,2.61 -2.1,2.61 0,0 29.06,21.18 29.06,21.18 0,0 -5.54,8.41 -5.54,8.41 0,0 -2.82,-1.85 -2.82,-1.85 0,0 3.69,-5.61 3.69,-5.61 0,0 -8.2,-5.59 -8.2,-5.59 0,0 -9.56,13.78 -9.56,13.78 0,0 20.27,13.28 20.27,13.28 0,0 0,0 0,0l0 0zm-44.9 -32.39c0,0 13.01,-15.38 13.01,-15.38 0,0 4.99,4.17 4.99,4.17 0,0 2.1,-2.61 2.1,-2.61 0,0 -7.22,-6.07 -7.22,-6.07 0,0 -13.37,15.06 -13.37,15.06 0,0 -12.63,-11.55 -12.63,-11.55 0,0 7.04,-7.21 7.04,-7.21 0,0 2.36,2.24 2.36,2.24 0,0 -4.58,4.92 -4.58,4.92 0,0 7.51,6.85 7.51,6.85 0,0 11.15,-12.55 11.15,-12.55 0,0 -27.34,-27.33 -27.34,-27.33 0,0 -2.51,2.23 -2.51,2.23 0,0 25.09,25.37 25.09,25.37 0,0 -6.68,7.53 -6.68,7.53 0,0 -2.46,-2.26 -2.46,-2.26 0,0 4.58,-4.91 4.58,-4.91 0,0 -7.2,-6.85 -7.2,-6.85 0,0 -11.72,12.01 -11.72,12.01 0,0 17.88,16.34 17.88,16.34 0,0 0,0 0,0l0 0zm-39.14 -39.13c0,0 15.38,-13 15.38,-13 0,0 4.27,4.9 4.27,4.9 0,0 2.51,-2.22 2.51,-2.22 0,0 -6.4,-7.43 -6.4,-7.43 0,0 -15.38,13 -15.38,13 0,0 -10.64,-13.4 -10.64,-13.4 0,0 7.99,-6.13 7.99,-6.13 0,0 2.06,2.68 2.06,2.68 0,0 -5.33,4.08 -5.33,4.08 0,0 6.31,7.97 6.31,7.97 0,0 13.07,-10.52 13.07,-10.52 0,0 -22.62,-31.32 -22.62,-31.32 0,0 -2.85,1.78 -2.85,1.78 0,0 20.74,29.02 20.74,29.02 0,0 -7.84,6.31 -7.84,6.31 0,0 -2.09,-2.6 -2.09,-2.6 0,0 5.33,-4.08 5.33,-4.08 0,0 -6,-7.91 -6,-7.91 0,0 -13.56,9.89 -13.56,9.89 0,0 15.05,18.98 15.05,18.98 0,0 0,0 0,0l0 0zm-32.41 -44.88c0,0 17.34,-10.25 17.34,-10.25 0,0 3.44,5.52 3.44,5.52 0,0 2.84,-1.78 2.84,-1.78 0,0 -5.11,-8.35 -5.11,-8.35 0,0 -17.34,10.25 -17.34,10.25 0,0 -8.35,-14.94 -8.35,-14.94 0,0 8.91,-4.7 8.91,-4.7 0,0 1.58,2.98 1.58,2.98 0,0 -5.94,3.13 -5.94,3.13 0,0 4.98,8.92 4.98,8.92 0,0 14.45,-8.54 14.45,-8.54 0,0 -17.27,-34.54 -17.27,-34.54 0,0 -3.08,1.35 -3.08,1.35 0,0 15.93,32.21 15.93,32.21 0,0 -8.79,4.91 -8.79,4.91 0,0 -1.65,-2.95 -1.65,-2.95 0,0 5.86,-3.27 5.86,-3.27 0,0 -4.67,-8.75 -4.67,-8.75 0,0 -14.85,7.83 -14.85,7.83 0,0 11.72,20.97 11.72,20.97 0,0 0,0 0,0l0 0zm-24.67 -49.34c0,0 18.64,-7.61 18.64,-7.61 0,0 2.48,6 2.48,6 0,0 3.08,-1.35 3.08,-1.35 0,0 -3.57,-8.71 -3.57,-8.71 0,0 -18.83,7.15 -18.83,7.15 0,0 -5.82,-16.09 -5.82,-16.09 0,0 9.58,-3.11 9.58,-3.11 0,0 1.05,3.07 1.05,3.07 0,0 -6.34,2.23 -6.34,2.23 0,0 3.47,9.56 3.47,9.56 0,0 15.69,-5.96 15.69,-5.96 0,0 -11.47,-36.83 -11.47,-36.83 0,0 -3.26,0.8 -3.26,0.8 0,0 10.4,34.06 10.4,34.06 0,0 -9.42,3.58 -9.42,3.58 0,0 -1.12,-3.14 -1.12,-3.14 0,0 6.34,-2.23 6.34,-2.23 0,0 -3.19,-9.39 -3.19,-9.39 0,0 -15.97,5.18 -15.97,5.18 0,0 8.26,22.79 8.26,22.79 0,0 0,0 0,0l0 0zm-16.47 -52.88c0,0 19.68,-4.28 19.68,-4.28 0,0 1.49,6.31 1.49,6.31 0,0 3.26,-0.8 3.26,-0.8 0,0 -2.19,-9.53 -2.19,-9.53 0,0 -19.68,4.29 -19.68,4.29 0,0 -3.16,-16.83 -3.16,-16.83 0,0 9.94,-1.65 9.94,-1.65 0,0 0.55,3.33 0.55,3.33 0,0 -6.62,1.1 -6.62,1.1 0,0 1.85,9.99 1.85,9.99 0,0 16.49,-3.15 16.49,-3.15 0,0 -5.42,-38.55 -5.42,-38.55 0,0 -3.35,0.3 -3.35,0.3 0,0 4.84,35.56 4.84,35.56 0,0 -9.89,1.9 -9.89,1.9 0,0 -0.64,-3.32 -0.64,-3.32 0,0 6.59,-1.26 6.59,-1.26 0,0 -1.59,-9.57 -1.59,-9.57 0,0 -16.63,2.33 -16.63,2.33 0,0 4.47,23.83 4.47,23.83 0,0 0,0 0,0l0.01 0zm-7.7 -54.66c0,0 20.11,-1.28 20.11,-1.28 0,0 0.43,6.47 0.43,6.47 0,0 3.35,-0.3 3.35,-0.3 0,0 -0.62,-9.37 -0.62,-9.37 0,0 -20.13,0.77 -20.13,0.77 0,0 -0.42,-17 -0.42,-17 0,0 10.07,-0.12 10.07,-0.12 0,0 0.04,3.37 0.04,3.37 0,0 -6.71,0.09 -6.71,0.09 0,0 0.25,10.16 0.25,10.16 0,0 16.78,-0.64 16.78,-0.64 0,0 0.76,-38.55 0.76,-38.55 0,0 -3.35,-0.29 -3.35,-0.29 0,0 -0.9,35.6 -0.9,35.6 0,0 -10.06,0.38 -10.06,0.38 0,0 -0.08,-3.33 -0.08,-3.33 0,0 6.71,-0.09 6.71,-0.09 0,0 -0.04,-9.91 -0.04,-9.91 0,0 -16.79,-0.21 -16.79,-0.21 0,0 0.6,24.25 0.6,24.25 0,0 0,0 0,0l0 0zm1.12 -55.39c0,0 20.02,2.24 20.02,2.24 0,0 -0.58,6.46 -0.58,6.46 0,0 3.35,0.29 3.35,0.29 0,0 0.94,-9.73 0.94,-9.73 0,0 -20.02,-2.24 -20.02,-2.24 0,0 2.32,-16.96 2.32,-16.96 0,0 9.94,1.61 9.94,1.61 0,0 -0.54,3.33 -0.54,3.33 0,0 -6.63,-1.07 -6.63,-1.07 0,0 -1.38,10.11 -1.38,10.11 0,0 16.68,1.86 16.68,1.86 0,0 6.98,-37.95 6.98,-37.95 0,0 -3.26,-0.78 -3.26,-0.78 0,0 -6.66,35.3 -6.66,35.3 0,0 -9.97,-1.36 -9.97,-1.36 0,0 0.45,-3.35 0.45,-3.35 0,0 6.66,0.91 6.66,0.91 0,0 1.52,-9.8 1.52,-9.8 0,0 -16.57,-2.68 -16.57,-2.68 0,0 -3.25,23.81 -3.25,23.81 0,0 0,0 0,0l0 0zm9.97 -54.26c0,0 19.47,5.15 19.47,5.15 0,0 -1.63,6.28 -1.63,6.28 0,0 3.27,0.78 3.27,0.78 0,0 2.38,-9.11 2.38,-9.11 0,0 -19.34,-5.62 -19.34,-5.62 0,0 5.02,-16.37 5.02,-16.37 0,0 9.52,3.28 9.52,3.28 0,0 -1,3.09 -1,3.09 0,0 -6.4,-2.02 -6.4,-2.02 0,0 -2.98,9.71 -2.98,9.71 0,0 16.12,4.69 16.12,4.69 0,0 12.96,-36.36 12.96,-36.36 0,0 -3.08,-1.32 -3.08,-1.32 0,0 -12.16,33.5 -12.16,33.5 0,0 -9.67,-2.81 -9.67,-2.81 0,0 0.99,-3.18 0.99,-3.18 0,0 6.4,2.03 6.4,2.03 0,0 3.1,-9.43 3.1,-9.43 0,0 -15.88,-5.46 -15.88,-5.46 0,0 -7.09,23.17 -7.09,23.17 0,0 0,0 0,0l0 0zm18.59 -52.15c0,0 18.32,8.38 18.32,8.38 0,0 -2.6,5.95 -2.6,5.95 0,0 3.08,1.32 3.08,1.32 0,0 3.98,-8.95 3.98,-8.95 0,0 -18.32,-8.37 -18.32,-8.37 0,0 7.57,-15.36 7.57,-15.36 0,0 8.94,4.63 8.94,4.63 0,0 -1.55,3 -1.55,3 0,0 -5.96,-3.09 -5.96,-3.09 0,0 -4.51,9.11 -4.51,9.11 0,0 15.08,7.35 15.08,7.35 0,0 18.61,-33.82 18.61,-33.82 0,0 -2.81,-1.83 -2.81,-1.83 0,0 -17.33,31.15 -17.33,31.15 0,0 -9.06,-4.41 -9.06,-4.41 0,0 1.48,-3.03 1.48,-3.03 0,0 6.04,2.94 6.04,2.94 0,0 4.47,-8.63 4.47,-8.63 0,0 -14.71,-8.08 -14.71,-8.08 0,0 -10.72,21.74 -10.72,21.74 0,0 0,0 0,0l0 0zm26.62 -48.32c0,0 16.9,10.96 16.9,10.96 0,0 -3.69,5.69 -3.69,5.69 0,0 2.81,1.82 2.81,1.82 0,0 5.37,-8.18 5.37,-8.18 0,0 -16.62,-11.37 -16.62,-11.37 0,0 9.94,-13.94 9.94,-13.94 0,0 8.02,6.09 8.02,6.09 0,0 -1.95,2.6 -1.95,2.6 0,0 -5.44,-3.93 -5.44,-3.93 0,0 -5.89,8.29 -5.89,8.29 0,0 13.85,9.48 13.85,9.48 0,0 23.81,-30.37 23.81,-30.37 0,0 -2.52,-2.22 -2.52,-2.22 0,0 -22.31,28.15 -22.31,28.15 0,0 -8.17,-5.89 -8.17,-5.89 0,0 1.98,-2.74 1.98,-2.74 0,0 5.44,3.93 5.44,3.93 0,0 5.92,-7.96 5.92,-7.96 0,0 -13.37,-10.15 -13.37,-10.15 0,0 -14.08,19.74 -14.08,19.74 0,0 0,0 0,0l0 0zm34.18 -43.59c0,0 14.77,13.7 14.77,13.7 0,0 -4.36,4.81 -4.36,4.81 0,0 2.52,2.22 2.52,2.22 0,0 6.59,-7.23 6.59,-7.23 0,0 -14.76,-13.69 -14.76,-13.69 0,0 12.05,-12.17 12.05,-12.17 0,0 7.03,7.2 7.03,7.2 0,0 -2.41,2.36 -2.41,2.36 0,0 -4.69,-4.8 -4.69,-4.8 0,0 -7.17,7.22 -7.17,7.22 0,0 12.02,11.71 12.02,11.71 0,0 28.35,-26.18 28.35,-26.18 0,0 -2.1,-2.62 -2.1,-2.62 0,0 -26.3,24.04 -26.3,24.04 0,0 -7.2,-7.03 -7.2,-7.03 0,0 2.32,-2.38 2.32,-2.38 0,0 4.69,4.8 4.69,4.8 0,0 7.13,-6.89 7.13,-6.89 0,0 -11.42,-12.3 -11.42,-12.3 0,0 -17.06,17.23 -17.06,17.23 0,0 0,0 0,0l0 0zm40.57 -37.43c0,0 12.57,15.73 12.57,15.73 0,0 -5.3,4.23 -5.3,4.23 0,0 2.1,2.62 2.1,2.62 0,0 7.68,-6.06 7.68,-6.06 0,0 -12.18,-16.03 -12.18,-16.03 0,0 13.85,-10.08 13.85,-10.08 0,0 5.69,8.31 5.69,8.31 0,0 -2.68,1.85 -2.68,1.85 0,0 -3.93,-5.45 -3.93,-5.45 0,0 -8.21,6 -8.21,6 0,0 10.15,13.36 10.15,13.36 0,0 32.22,-21.27 32.22,-21.27 0,0 -1.69,-2.9 -1.69,-2.9 0,0 -30.09,19.65 -30.09,19.65 0,0 -5.89,-8.17 -5.89,-8.17 0,0 2.74,-1.97 2.74,-1.97 0,0 3.93,5.44 3.93,5.44 0,0 8.13,-5.68 8.13,-5.68 0,0 -9.48,-13.84 -9.48,-13.84 0,0 -19.61,14.26 -19.61,14.26 0,0 0,0 0,0l0 0zm46.22 -30.52c0,0 9.71,17.64 9.71,17.64 0,0 -5.66,3.19 -5.66,3.19 0,0 1.69,2.9 1.69,2.9 0,0 8.54,-4.77 8.54,-4.77 0,0 -9.7,-17.65 -9.7,-17.65 0,0 15.28,-7.73 15.28,-7.73 0,0 4.42,9.05 4.42,9.05 0,0 -3.04,1.48 -3.04,1.48 0,0 -2.94,-6.03 -2.94,-6.03 0,0 -9.08,4.58 -9.08,4.58 0,0 7.72,14.9 7.72,14.9 0,0 35.22,-15.86 35.22,-15.86 0,0 -1.17,-3.14 -1.17,-3.14 0,0 -32.59,14.46 -32.59,14.46 0,0 -4.64,-8.93 -4.64,-8.93 0,0 2.97,-1.52 2.97,-1.52 0,0 2.95,6.03 2.95,6.03 0,0 8.95,-4.28 8.95,-4.28 0,0 -6.99,-15.26 -6.99,-15.26 0,0 -21.64,10.94 -21.64,10.94 0,0 0,0 0,0l0 0zm50.52 -22.73c0,0 6.56,19.03 6.56,19.03 0,0 -6.09,2.26 -6.09,2.26 0,0 1.17,3.14 1.17,3.14 0,0 9.2,-3.33 9.2,-3.33 0,0 -6.56,-19.03 -6.56,-19.03 0,0 16.33,-5.17 16.33,-5.17 0,0 2.81,9.66 2.81,9.66 0,0 -3.24,0.94 -3.24,0.94 0,0 -1.88,-6.44 -1.88,-6.44 0,0 -9.73,3.08 -9.73,3.08 0,0 5.47,15.87 5.47,15.87 0,0 37.3,-9.97 37.3,-9.97 0,0 -0.69,-3.29 -0.69,-3.29 0,0 -34.77,9.13 -34.77,9.13 0,0 -3.05,-9.59 -3.05,-9.59 0,0 3.22,-1.02 3.22,-1.02 0,0 2.03,6.39 2.03,6.39 0,0 9.52,-2.82 9.52,-2.82 0,0 -4.69,-16.11 -4.69,-16.11 0,0 -22.91,7.27 -22.91,7.27 0,0 0,0 0,0l0 0zm53.32 -14.26c0,0 3.7,19.79 3.7,19.79 0,0 -6.37,1.22 -6.37,1.22 0,0 0.69,3.29 0.69,3.29 0,0 9.26,-1.76 9.26,-1.76 0,0 -3.22,-19.87 -3.22,-19.87 0,0 16.95,-2.49 16.95,-2.49 0,0 1.11,10.01 1.11,10.01 0,0 -3.22,0.42 -3.22,0.42 0,0 -0.91,-6.65 -0.91,-6.65 0,0 -10.06,1.48 -10.06,1.48 0,0 2.68,16.56 2.68,16.56 0,0 38.41,-3.88 38.41,-3.88 0,0 -0.13,-3.35 -0.13,-3.35 0,0 -35.48,3.38 -35.48,3.38 0,0 -1.61,-9.94 -1.61,-9.94 0,0 3.3,-0.47 3.3,-0.47 0,0 0.91,6.65 0.91,6.65 0,0 9.84,-1.24 9.84,-1.24 0,0 -1.86,-16.68 -1.86,-16.68 0,0 -23.99,3.53 -23.99,3.53 0,0 0,0 0,0l0 0zm55.13 -5.57c0,0 0.25,20.13 0.25,20.13 0,0 -6.49,0.21 -6.49,0.21 0,0 0.13,3.35 0.13,3.35 0,0 9.78,-0.24 9.78,-0.24 0,0 -0.25,-20.14 -0.25,-20.14 0,0 17.12,0.26 17.12,0.26 0,0 -0.37,10.06 -0.37,10.06 0,0 -3.37,-0.12 -3.37,-0.12 0,0 0.25,-6.71 0.25,-6.71 0,0 -10.17,-0.17 -10.17,-0.17 0,0 -0.21,16.77 -0.21,16.77 0,0 38.9,2.36 38.9,2.36 0,0 0.37,-3.33 0.37,-3.33 0,0 -35.85,-2.34 -35.85,-2.34 0,0 0.12,-10.06 0.12,-10.06 0,0 3.38,0.04 3.38,0.04 0,0 -0.09,6.71 -0.09,6.71 0,0 9.71,0.33 9.71,0.33 0,0 1.04,-16.75 1.04,-16.75 0,0 -24.25,-0.36 -24.25,-0.36 0,0 0,0 0,0l0 0zm55.11 3.34c0,0 -2.73,19.95 -2.73,19.95 0,0 -6.44,-0.86 -6.44,-0.86 0,0 -0.37,3.33 -0.37,3.33 0,0 9.33,1.28 9.33,1.28 0,0 3.22,-19.88 3.22,-19.88 0,0 16.86,3.01 16.86,3.01 0,0 -2.1,9.85 -2.1,9.85 0,0 -3.19,-0.63 -3.19,-0.63 0,0 1.24,-6.6 1.24,-6.6 0,0 -10.02,-1.77 -10.02,-1.77 0,0 -2.68,16.56 -2.68,16.56 0,0 37.67,8.48 37.67,8.48 0,0 0.94,-3.23 0.94,-3.23 0,0 -34.74,-8.03 -34.74,-8.03 0,0 1.61,-9.93 1.61,-9.93 0,0 3.28,0.6 3.28,0.6 0,0 -1.24,6.59 -1.24,6.59 0,0 9.74,1.94 9.74,1.94 0,0 3.49,-16.41 3.49,-16.41 0,0 -23.87,-4.25 -23.87,-4.25 0,0 0,0 0,0l0 0zm54.04 12.17c0,0 -6.09,19.19 -6.09,19.19 0,0 -6.22,-1.87 -6.22,-1.87 0,0 -0.94,3.23 -0.94,3.23 0,0 9.36,2.86 9.36,2.86 0,0 6.1,-19.19 6.1,-19.19 0,0 16.16,5.66 16.16,5.66 0,0 -3.51,9.44 -3.51,9.44 0,0 -3.17,-1.18 -3.17,-1.18 0,0 2.34,-6.29 2.34,-6.29 0,0 -9.59,-3.38 -9.59,-3.38 0,0 -5.47,15.86 -5.47,15.86 0,0 35.84,14.4 35.84,14.4 0,0 1.47,-3.02 1.47,-3.02 0,0 -33.02,-13.45 -33.02,-13.45 0,0 3.28,-9.52 3.28,-9.52 0,0 3.19,1.1 3.19,1.1 0,0 -2.18,6.35 -2.18,6.35 0,0 9.1,3.41 9.1,3.41 0,0 6.23,-15.58 6.23,-15.58 0,0 -22.88,-8.02 -22.88,-8.02 0,0 0,0 0,0l0 0zm51.21 20.58c0,0 -8.83,18.1 -8.83,18.1 0,0 -6.1,-2.97 -6.1,-2.97 0,0 -1.47,3.02 -1.47,3.02 0,0 8.78,4.33 8.78,4.33 0,0 9.26,-17.87 9.26,-17.87 0,0 15.05,8.18 15.05,8.18 0,0 -5.07,8.7 -5.07,8.7 0,0 -2.82,-1.62 -2.82,-1.62 0,0 3.24,-5.88 3.24,-5.88 0,0 -8.94,-4.85 -8.94,-4.85 0,0 -7.72,14.9 -7.72,14.9 0,0 33.04,19.97 33.04,19.97 0,0 1.89,-2.77 1.89,-2.77 0,0 -30.66,-18.74 -30.66,-18.74 0,0 4.85,-8.82 4.85,-8.82 0,0 2.96,1.62 2.96,1.62 0,0 -3.23,5.88 -3.23,5.88 0,0 8.62,4.91 8.62,4.91 0,0 8.44,-14.5 8.44,-14.5 0,0 -21.29,-11.59 -21.29,-11.59 0,0 0,0 0,0l0 0zm47.4 28.66c0,0 -11.78,16.33 -11.78,16.33 0,0 -5.31,-3.75 -5.31,-3.75 0,0 -1.89,2.77 -1.89,2.77 0,0 7.97,5.67 7.97,5.67 0,0 11.79,-16.33 11.79,-16.33 0,0 13.54,10.49 13.54,10.49 0,0 -6.29,7.86 -6.29,7.86 0,0 -2.64,-2.1 -2.64,-2.1 0,0 4.19,-5.25 4.19,-5.25 0,0 -8.03,-6.23 -8.03,-6.23 0,0 -10.15,13.36 -10.15,13.36 0,0 29.41,24.99 29.41,24.99 0,0 2.34,-2.41 2.34,-2.41 0,0 -27.03,-23.21 -27.03,-23.21 0,0 6.09,-8.01 6.09,-8.01 0,0 2.64,2.03 2.64,2.03 0,0 -4.19,5.24 -4.19,5.24 0,0 7.71,6.24 7.71,6.24 0,0 10.8,-12.84 10.8,-12.84 0,0 -19.17,-14.85 -19.17,-14.85 0,0 0,0 0,0l0 0zm42.22 35.87c0,0 -14.42,14.06 -14.42,14.06 0,0 -4.65,-4.53 -4.65,-4.53 0,0 -2.34,2.41 -2.34,2.41 0,0 6.95,6.88 6.95,6.88 0,0 14.42,-14.06 14.42,-14.06 0,0 11.67,12.53 11.67,12.53 0,0 -7.55,6.66 -7.55,6.66 0,0 -2.23,-2.53 -2.23,-2.53 0,0 5.03,-4.44 5.03,-4.44 0,0 -6.97,-7.46 -6.97,-7.46 0,0 -12.02,11.72 -12.02,11.72 0,0 25,29.39 25,29.39 0,0 2.67,-2.03 2.67,-2.03 0,0 -23.14,-27.47 -23.14,-27.47 0,0 7.38,-6.85 7.38,-6.85 0,0 2.3,2.47 2.3,2.47 0,0 -4.92,4.57 -4.92,4.57 0,0 6.62,7.38 6.62,7.38 0,0 12.58,-11.1 12.58,-11.1 0,0 -16.38,-17.6 -16.38,-17.6 0,0 0,0 0,0l0 0zm35.75 42.05c0,0 -16.34,11.78 -16.34,11.78 0,0 -3.85,-5.23 -3.85,-5.23 0,0 -2.67,2.03 -2.67,2.03 0,0 5.77,7.9 5.77,7.9 0,0 16.34,-11.78 16.34,-11.78 0,0 9.52,14.23 9.52,14.23 0,0 -8.45,5.48 -8.45,5.48 0,0 -1.84,-2.82 -1.84,-2.82 0,0 5.63,-3.66 5.63,-3.66 0,0 -5.64,-8.45 -5.64,-8.45 0,0 -13.86,9.48 -13.86,9.48 0,0 19.99,33.02 19.99,33.02 0,0 2.98,-1.54 2.98,-1.54 0,0 -18.29,-30.59 -18.29,-30.59 0,0 8.31,-5.69 8.31,-5.69 0,0 1.86,2.77 1.86,2.77 0,0 -5.63,3.65 -5.63,3.65 0,0 5.33,8.36 5.33,8.36 0,0 14.3,-8.79 14.3,-8.79 0,0 -13.47,-20.15 -13.47,-20.15 0,0 0,0 0,0l0.01 0zm28.66 47.39c0,0 -18.11,8.82 -18.11,8.82 0,0 -2.97,-5.77 -2.97,-5.77 0,0 -2.98,1.54 -2.98,1.54 0,0 4.41,8.73 4.41,8.73 0,0 18.11,-8.82 18.11,-8.82 0,0 7.11,15.57 7.11,15.57 0,0 -9.26,3.97 -9.26,3.97 0,0 -1.33,-3.1 -1.33,-3.1 0,0 6.17,-2.65 6.17,-2.65 0,0 -4.23,-9.29 -4.23,-9.29 0,0 -15.09,7.36 -15.09,7.36 0,0 14.4,35.82 14.4,35.82 0,0 3.18,-1.1 3.18,-1.1 0,0 -13.26,-33.39 -13.26,-33.39 0,0 9.15,-4.19 9.15,-4.19 0,0 1.41,3.07 1.41,3.07 0,0 -6.11,2.79 -6.11,2.79 0,0 3.87,8.91 3.87,8.91 0,0 15.59,-6.23 15.59,-6.23 0,0 -10.06,-22.04 -10.06,-22.04 0,0 0,0 0,0l0 0zm20.59 51.17c0,0 -19.2,6.09 -19.2,6.09 0,0 -1.98,-6.18 -1.98,-6.18 0,0 -3.18,1.1 -3.18,1.1 0,0 2.85,8.97 2.85,8.97 0,0 19.34,-5.62 19.34,-5.62 0,0 4.51,16.51 4.51,16.51 0,0 -9.8,2.34 -9.8,2.34 0,0 -0.79,-3.15 -0.79,-3.15 0,0 6.49,-1.72 6.49,-1.72 0,0 -2.69,-9.8 -2.69,-9.8 0,0 -16.12,4.68 -16.12,4.68 0,0 8.48,37.65 8.48,37.65 0,0 3.32,-0.54 3.32,-0.54 0,0 -7.63,-34.8 -7.63,-34.8 0,0 9.67,-2.81 9.67,-2.81 0,0 0.86,3.22 0.86,3.22 0,0 -6.49,1.71 -6.49,1.71 0,0 2.42,9.62 2.42,9.62 0,0 16.33,-3.89 16.33,-3.89 0,0 -6.39,-23.38 -6.39,-23.38 0,0 0,0 0,0l0 0zm12.17 54.02c0,0 -19.96,2.73 -19.96,2.73 0,0 -0.98,-6.42 -0.98,-6.42 0,0 -3.32,0.54 -3.32,0.54 0,0 1.43,9.68 1.43,9.68 0,0 19.96,-2.73 19.96,-2.73 0,0 1.81,17.02 1.81,17.02 0,0 -10.04,0.87 -10.04,0.87 0,0 -0.29,-3.36 -0.29,-3.36 0,0 6.69,-0.58 6.69,-0.58 0,0 -1.06,-10.11 -1.06,-10.11 0,0 -16.68,1.87 -16.68,1.87 0,0 2.36,38.87 2.36,38.87 0,0 3.35,-0.04 3.35,-0.04 0,0 -2,-35.85 -2,-35.85 0,0 10.01,-1.12 10.01,-1.12 0,0 0.37,3.35 0.37,3.35 0,0 -6.67,0.75 -6.67,0.75 0,0 0.82,9.67 0.82,9.67 0,0 16.76,-1.04 16.76,-1.04 0,0 -2.56,-24.1 -2.56,-24.1 0,0 0,0 0,0l0 0zm0 0l0 0 0 0z"/>
    </g>
</svg>
